<?xml version="1.0" encoding="UTF-8" standalone="no"?>
<!-- Created with Inkscape (http://www.inkscape.org/) -->

<svg
   xmlns:dc="http://purl.org/dc/elements/1.1/"
   xmlns:cc="http://creativecommons.org/ns#"
   xmlns:rdf="http://www.w3.org/1999/02/22-rdf-syntax-ns#"
   xmlns:svg="http://www.w3.org/2000/svg"
   xmlns="http://www.w3.org/2000/svg"
   xmlns:xlink="http://www.w3.org/1999/xlink"
   xmlns:sodipodi="http://sodipodi.sourceforge.net/DTD/sodipodi-0.dtd"
   xmlns:inkscape="http://www.inkscape.org/namespaces/inkscape"
   width="250"
   height="260"
   id="svg2"
   version="1.1"
   inkscape:version="0.47 r22583"
   sodipodi:docname="2019-01-29-smart_thermo_1.svg">
  <defs
     id="defs4">
    <marker
       inkscape:stockid="Arrow1Lend"
       orient="auto"
       refY="0"
       refX="0"
       id="Arrow1Lend"
       style="overflow:visible">
      <path
         id="path3636"
         d="M 0,0 5,-5 -12.5,0 5,5 0,0 z"
         style="fill-rule:evenodd;stroke:#000000;stroke-width:1pt;marker-start:none"
         transform="matrix(-0.8,0,0,-0.8,-10,0)" />
    </marker>
    <marker
       inkscape:stockid="Arrow1Lend"
       orient="auto"
       refY="0"
       refX="0"
       id="marker5214"
       style="overflow:visible">
      <path
         id="path5216"
         d="M 0,0 5,-5 -12.5,0 5,5 0,0 z"
         style="fill-rule:evenodd;stroke:#000000;stroke-width:1pt;marker-start:none"
         transform="matrix(-0.8,0,0,-0.8,-10,0)" />
    </marker>
  </defs>
  <sodipodi:namedview
     id="base"
     pagecolor="#ffffff"
     bordercolor="#666666"
     borderopacity="1.0"
     inkscape:pageopacity="0.0"
     inkscape:pageshadow="2"
     inkscape:zoom="1"
     inkscape:cx="236.59697"
     inkscape:cy="168.13919"
     inkscape:document-units="px"
     inkscape:current-layer="layer1"
     showgrid="false"
     inkscape:snap-center="false"
     inkscape:object-nodes="false"
     inkscape:snap-nodes="true"
     inkscape:window-width="1268"
     inkscape:window-height="768"
     inkscape:window-x="0"
     inkscape:window-y="0"
     inkscape:window-maximized="0" />
  <metadata
     id="metadata7">
    <rdf:RDF>
      <cc:Work
         rdf:about="">
        <dc:format>image/svg+xml</dc:format>
        <dc:type
           rdf:resource="http://purl.org/dc/dcmitype/StillImage" />
        <dc:title></dc:title>
      </cc:Work>
    </rdf:RDF>
  </metadata>
  <g
     inkscape:label="Layer 1"
     inkscape:groupmode="layer"
     id="layer1">
    <path
       sodipodi:type="arc"
       style="fill:none;stroke:#000000;stroke-width:1;stroke-linecap:round;stroke-linejoin:round;stroke-miterlimit:4;stroke-opacity:1;stroke-dasharray:none;stroke-dashoffset:0"
       id="path2816-0"
       sodipodi:cx="203.75"
       sodipodi:cy="424.61218"
       sodipodi:rx="15.75"
       sodipodi:ry="15.75"
       d="m 219.5,424.61218 c 0,8.69849 -7.05152,15.75 -15.75,15.75 -8.69848,0 -15.75,-7.05151 -15.75,-15.75 0,-8.69848 7.05152,-15.75 15.75,-15.75 8.69848,0 15.75,7.05152 15.75,15.75 z"
       transform="translate(-91.623513,-401.84755)" />
    <text
       xml:space="preserve"
       style="font-size:18px;font-style:normal;font-weight:normal;fill:#000000;fill-opacity:1;stroke:none;font-family:Sans;-inkscape-font-specification:Sans"
       x="107.45949"
       y="29.189442"
       id="text3590-2"><tspan
         sodipodi:role="line"
         id="tspan3592-3"
         x="107.45949"
         y="29.189442">T</tspan></text>
    <path
       sodipodi:type="arc"
       style="fill:none;stroke:#000000;stroke-width:1;stroke-linecap:round;stroke-linejoin:round;stroke-miterlimit:4;stroke-opacity:1;stroke-dasharray:none;stroke-dashoffset:0"
       id="path3604-9"
       sodipodi:cx="203.75"
       sodipodi:cy="424.61218"
       sodipodi:rx="15.75"
       sodipodi:ry="15.75"
       d="m 219.5,424.61218 c 0,8.69849 -7.05152,15.75 -15.75,15.75 -8.69848,0 -15.75,-7.05151 -15.75,-15.75 0,-8.69848 7.05152,-15.75 15.75,-15.75 8.69848,0 15.75,7.05152 15.75,15.75 z"
       transform="translate(-47.743143,-339.74794)" />
    <text
       xml:space="preserve"
       style="font-size:18px;font-style:normal;font-weight:normal;fill:#000000;fill-opacity:1;stroke:none;font-family:Sans;-inkscape-font-specification:Sans"
       x="151.29152"
       y="91.293442"
       id="text3606-9"><tspan
         sodipodi:role="line"
         id="tspan3608-7"
         x="151.29152"
         y="91.293442">S</tspan></text>
    <path
       transform="translate(-91.623513,-277.84755)"
       d="m 219.5,424.61218 c 0,8.69849 -7.05152,15.75 -15.75,15.75 -8.69848,0 -15.75,-7.05151 -15.75,-15.75 0,-8.69848 7.05152,-15.75 15.75,-15.75 8.69848,0 15.75,7.05152 15.75,15.75 z"
       sodipodi:ry="15.75"
       sodipodi:rx="15.75"
       sodipodi:cy="424.61218"
       sodipodi:cx="203.75"
       id="path3610-0"
       style="fill:none;stroke:#000000;stroke-width:1;stroke-linecap:round;stroke-linejoin:round;stroke-miterlimit:4;stroke-opacity:1;stroke-dasharray:none;stroke-dashoffset:0"
       sodipodi:type="arc" />
    <text
       id="text3612-3"
       y="153.18944"
       x="107.04201"
       style="font-size:18px;font-style:normal;font-weight:normal;fill:#000000;fill-opacity:1;stroke:none;font-family:Sans;-inkscape-font-specification:Sans"
       xml:space="preserve"><tspan
         y="153.18944"
         x="107.04201"
         id="tspan3614-0"
         sodipodi:role="line">F</tspan></text>
    <path
       style="fill:none;stroke:#000000;stroke-width:1px;stroke-linecap:butt;stroke-linejoin:miter;stroke-opacity:1;marker-end:url(#Arrow1Lend)"
       d="m 121.21626,35.6285 25.70083,36.371876"
       id="path3622-5"
       inkscape:connector-type="polyline"
       inkscape:connection-start="#path2816-0"
       inkscape:connection-end="#path3604-9" />
    <path
       style="fill:none;stroke:#000000;stroke-width:1px;stroke-linecap:butt;stroke-linejoin:miter;stroke-opacity:1;marker-end:url(#Arrow1Lend)"
       d="M 143.89761,94.714304 118.23572,130.91456"
       id="path3628-0"
       inkscape:connector-type="polyline" />
    <path
       style="fill:none;stroke:#000000;stroke-width:1px;stroke-linecap:butt;stroke-linejoin:miter;stroke-opacity:1;marker-end:url(#Arrow1Lend)"
       d="M 125.73572,136.91456 151.39761,100.7143"
       id="path4998-2"
       inkscape:connector-type="polyline" />
    <path
       style="fill:none;stroke:#000000;stroke-width:1px;stroke-linecap:butt;stroke-linejoin:miter;stroke-opacity:1;marker-end:url(#marker5214)"
       d="m 112.12649,38.514633 0,92.499997"
       id="path5303"
       inkscape:connector-type="polyline"
       inkscape:connection-start="#path2816-0"
       inkscape:connection-end="#path3610-0" />
    <g
       id="g5614"
       transform="translate(-121.10713,-307.3966)">
      <path
         transform="translate(-5.75,-8)"
         d="m 189.25,534.48718 c 0,1.72589 -1.39911,3.125 -3.125,3.125 -1.72589,0 -3.125,-1.39911 -3.125,-3.125 0,-1.72589 1.39911,-3.125 3.125,-3.125 1.72589,0 3.125,1.39911 3.125,3.125 z"
         sodipodi:ry="3.125"
         sodipodi:rx="3.125"
         sodipodi:cy="534.48718"
         sodipodi:cx="186.125"
         id="path5501"
         style="fill:none;stroke:#000000;stroke-width:1;stroke-linecap:round;stroke-linejoin:round;stroke-miterlimit:4;stroke-opacity:1;stroke-dasharray:none;stroke-dashoffset:0"
         sodipodi:type="arc" />
      <path
         inkscape:transform-center-y="-6.8052856"
         sodipodi:nodetypes="csssccc"
         id="path5503"
         d="m 177.92977,524.1366 c -2.65841,-3.50084 -2.52577,-4.61304 -1.32472,-6.31433 1.34571,-1.90622 2.84115,-2.91502 5.9062,-2.21752 2.29601,0.5225 2.38985,4.30668 1.28514,4.22452 -1.26877,-0.0944 -1.73642,0.81504 -1.83716,1.65317 l -0.47587,1.81571 c -1.39411,-0.0533 -2.39522,0.13149 -3.55359,0.83845 z"
         style="fill:none;stroke:#000000;stroke-width:1px;stroke-linecap:butt;stroke-linejoin:miter;stroke-opacity:1" />
      <use
         inkscape:transform-center-x="-6.0437057"
         height="1052.3622"
         width="744.09448"
         transform="matrix(-0.5,0.8660254,-0.8660254,-0.5,726.0956,633.76288)"
         id="use5513"
         inkscape:transform-center-y="3.6450225"
         xlink:href="#path5503"
         y="0"
         x="0" />
      <use
         x="0"
         y="0"
         xlink:href="#path5503"
         inkscape:transform-center-y="3.6309396"
         id="use5515"
         transform="matrix(-0.5,-0.8660254,0.8660254,-0.5,-185.80696,945.69867)"
         width="744.09448"
         height="1052.3622"
         inkscape:transform-center-x="5.8618399" />
    </g>
    <path
       sodipodi:type="arc"
       style="fill:none;stroke:#000000;stroke-width:1;stroke-linecap:round;stroke-linejoin:round;stroke-miterlimit:4;stroke-opacity:1;stroke-dasharray:none;stroke-dashoffset:0"
       id="path5620"
       sodipodi:cx="203.75"
       sodipodi:cy="424.61218"
       sodipodi:rx="15.75"
       sodipodi:ry="15.75"
       d="m 219.5,424.61218 c 0,8.69849 -7.05152,15.75 -15.75,15.75 -8.69848,0 -15.75,-7.05151 -15.75,-15.75 0,-8.69848 7.05152,-15.75 15.75,-15.75 8.69848,0 15.75,7.05152 15.75,15.75 z"
       transform="translate(-144.27858,-205.71025)" />
    <path
       style="fill:none;stroke:#000000;stroke-width:1px;stroke-linecap:butt;stroke-linejoin:miter;stroke-opacity:1"
       d="m 108.65316,228.8499 c -3.0625,-4.75 -1.80697,-10.14991 -0.5625,-13.625 1.37186,-3.83081 2.625,-4.625 2.6875,-2.1875 0.0568,2.21604 1.1875,4.9375 1.5625,3.0625 0.375,-1.875 0.5625,-4.25 0.25,-5.8125 -0.32706,-1.63532 1.25,-2.125 1.3125,-0.6875 0.0625,1.4375 0.697,2.89757 1.1875,4.0625 0.5,1.1875 1.75,5.8125 1.3125,7.3125 -0.4375,1.5 -1.3125,6.8125 -1.9375,7.25 -0.625,0.4375 -1.57147,1.30381 -1.4375,0.5 0.1875,-1.125 -1.11035,-1.58794 0.375,-5 0.6629,-1.52278 -1.0625,-3.125 -1.5,-3.625 -0.4375,-0.5 -0.4375,-0.5 -0.4375,-0.5 0,0 -0.25,0.1875 -0.5625,0.875 -0.3125,0.6875 -0.75,4.1875 -0.4375,4.4375 0.3125,0.25 1.1875,1.25 0.875,1.75 -0.3125,0.5 -0.0625,2.1875 -0.875,2.3125 -0.75404,0.11601 -1.6875,0 -1.8125,-0.125 z"
       id="path5517"
       sodipodi:nodetypes="cssssssssssscssssc" />
    <path
       transform="translate(-92.129463,-205.71025)"
       d="m 219.5,424.61218 c 0,8.69849 -7.05152,15.75 -15.75,15.75 -8.69848,0 -15.75,-7.05151 -15.75,-15.75 0,-8.69848 7.05152,-15.75 15.75,-15.75 8.69848,0 15.75,7.05152 15.75,15.75 z"
       sodipodi:ry="15.75"
       sodipodi:rx="15.75"
       sodipodi:cy="424.61218"
       sodipodi:cx="203.75"
       id="path5622"
       style="fill:none;stroke:#000000;stroke-width:1;stroke-linecap:round;stroke-linejoin:round;stroke-miterlimit:4;stroke-opacity:1;stroke-dasharray:none;stroke-dashoffset:0"
       sodipodi:type="arc" />
    <g
       id="g5606"
       transform="translate(-59.322533,-307.10762)">
      <path
         inkscape:transform-center-y="-5.877825"
         d="m 225.25,520.17468 -2.15781,0.95424 -2.15781,-0.95424 m 4.31562,-3.875 -2.15781,0.95424 -2.15781,-0.95424 m 2.15781,9.70989 0,-11.75565"
         style="fill:none;stroke:#000000;stroke-width:1px;stroke-linecap:butt;stroke-linejoin:miter;stroke-opacity:1"
         id="path5593" />
      <use
         inkscape:transform-center-x="-5.0903525"
         height="1052.3622"
         width="744.09448"
         transform="matrix(0.5,0.8660254,-0.8660254,0.5,567.08375,69.801281)"
         id="use5596"
         inkscape:transform-center-y="-3.3618326"
         xlink:href="#path5593"
         y="0"
         x="0" />
      <use
         x="0"
         y="0"
         xlink:href="#path5593"
         inkscape:transform-center-y="3.3618397"
         id="use5598"
         transform="matrix(-0.5,0.8660254,-0.8660254,-0.5,790.17594,595.81086)"
         width="744.09448"
         height="1052.3622"
         inkscape:transform-center-x="-5.0903525" />
      <use
         height="1052.3622"
         width="744.09448"
         transform="matrix(-1,0,0,-1,446.18437,1052.0191)"
         id="use5600"
         inkscape:transform-center-y="5.877785"
         xlink:href="#path5593"
         y="0"
         x="0" />
      <use
         inkscape:transform-center-x="5.0903125"
         x="0"
         y="0"
         xlink:href="#path5593"
         inkscape:transform-center-y="3.3618136"
         id="use5602"
         transform="matrix(-0.5,-0.8660254,0.8660254,-0.5,-120.89934,982.21784)"
         width="744.09448"
         height="1052.3622" />
      <use
         height="1052.3622"
         width="744.09448"
         transform="matrix(0.5,-0.8660254,0.8660254,0.5,-343.99153,456.20831)"
         id="use5604"
         inkscape:transform-center-y="-3.3618097"
         xlink:href="#path5593"
         y="0"
         x="0"
         inkscape:transform-center-x="5.0903125" />
    </g>
    <path
       sodipodi:type="arc"
       style="fill:none;stroke:#000000;stroke-width:1;stroke-linecap:round;stroke-linejoin:round;stroke-miterlimit:4;stroke-opacity:1;stroke-dasharray:none;stroke-dashoffset:0"
       id="path5624"
       sodipodi:cx="203.75"
       sodipodi:cy="424.61218"
       sodipodi:rx="15.75"
       sodipodi:ry="15.75"
       d="m 219.5,424.61218 c 0,8.69849 -7.05152,15.75 -15.75,15.75 -8.69848,0 -15.75,-7.05151 -15.75,-15.75 0,-8.69848 7.05152,-15.75 15.75,-15.75 8.69848,0 15.75,7.05152 15.75,15.75 z"
       transform="translate(-39.980333,-205.71025)" />
    <path
       style="fill:none;stroke:#000000;stroke-width:1;stroke-linecap:butt;stroke-linejoin:miter;stroke-miterlimit:4;stroke-opacity:1;stroke-dasharray:8, 8;stroke-dashoffset:0;marker-end:url(#marker5214)"
       d="m 163.78932,235.76463 0,15.5 -149.500003,0 0,-227.999996 81.5,0"
       id="path7120" />
    <path
       id="path7320"
       style="fill:none;stroke:#000000;stroke-width:1;stroke-linecap:butt;stroke-linejoin:miter;stroke-miterlimit:4;stroke-opacity:1;stroke-dasharray:8, 8;stroke-dashoffset:0"
       d="m 59.289317,234.76463 0,16 m 52.500003,-16 0,16" />
    <path
       sodipodi:type="arc"
       style="fill:none;stroke:#000000;stroke-width:1;stroke-linecap:round;stroke-linejoin:round;stroke-miterlimit:4;stroke-opacity:1;stroke-dasharray:none;stroke-dashoffset:0"
       id="path7335"
       sodipodi:cx="203.75"
       sodipodi:cy="424.61218"
       sodipodi:rx="15.75"
       sodipodi:ry="15.75"
       d="m 219.5,424.61218 c 0,8.69849 -7.05152,15.75 -15.75,15.75 -8.69848,0 -15.75,-7.05151 -15.75,-15.75 0,-8.69848 7.05152,-15.75 15.75,-15.75 8.69848,0 15.75,7.05152 15.75,15.75 z"
       transform="translate(21.590257,-339.79406)" />
    <path
       sodipodi:nodetypes="csssssssssc"
       id="path7337"
       d="m 221.44315,89.380034 c -2.82843,-10e-6 -5.39169,-2.56328 -4.68458,-3.71233 0.7071,-1.14905 1.67938,-3.62392 2.91681,-2.74004 1.23744,0.88389 0.61871,1.14905 1.76776,-0.53033 1.14905,-1.67938 3.1482,-2.82453 4.33104,-2.74004 1.23743,0.0884 3.44714,1.67938 3.35875,2.47488 -0.0884,0.79549 -0.79682,1.78016 -0.18782,1.8672 0.81244,0.11612 2.09681,-0.77426 2.88366,-0.69606 2.22044,0.22066 2.3423,3.33666 1.10486,4.66249 -0.70589,0.75632 -1.69582,1.30033 -3.88909,1.32583 l -7.60139,0.0884 z"
       style="fill:none;stroke:#000000;stroke-width:1px;stroke-linecap:butt;stroke-linejoin:miter;stroke-opacity:1" />
    <path
       style="fill:none;stroke:#000000;stroke-width:1px;stroke-linecap:butt;stroke-linejoin:miter;stroke-opacity:1;marker-end:url(#marker5214)"
       d="m 171.75686,79.353764 37.8334,-0.0252"
       id="path7539"
       inkscape:connector-type="polyline" />
    <path
       style="fill:none;stroke:#000000;stroke-width:1px;stroke-linecap:butt;stroke-linejoin:miter;stroke-opacity:1;marker-end:url(#marker5214)"
       d="m 209.59026,89.328594 -37.8334,0.0252"
       id="path7541"
       inkscape:connector-type="polyline" />
    <path
       style="fill:none;stroke:#000000;stroke-width:1px;stroke-linecap:butt;stroke-linejoin:miter;stroke-opacity:1;marker-end:url(#marker5214)"
       d="M 102.84006,159.48701 68.757846,206.17955"
       id="path7963"
       inkscape:connector-type="polyline"
       inkscape:connection-start="#path3610-0"
       inkscape:connection-end="#path5620" />
    <path
       style="fill:none;stroke:#000000;stroke-width:1px;stroke-linecap:butt;stroke-linejoin:miter;stroke-opacity:1;marker-end:url(#marker5214)"
       d="M 112.01602,162.51425 111.731,203.15231"
       id="path7965"
       inkscape:connector-type="polyline"
       inkscape:connection-start="#path3610-0"
       inkscape:connection-end="#path5622" />
    <path
       style="fill:none;stroke:#000000;stroke-width:1px;stroke-linecap:butt;stroke-linejoin:miter;stroke-opacity:1;marker-end:url(#marker5214)"
       d="m 121.29538,159.57212 33.30539,46.52232"
       id="path7967"
       inkscape:connector-type="polyline"
       inkscape:connection-start="#path3610-0"
       inkscape:connection-end="#path5624" />
  </g>
</svg>
