<?xml version="1.0" encoding="UTF-8" standalone="no"?>
<!-- Created with Inkscape (http://www.inkscape.org/) -->

<svg
   xmlns:dc="http://purl.org/dc/elements/1.1/"
   xmlns:cc="http://creativecommons.org/ns#"
   xmlns:rdf="http://www.w3.org/1999/02/22-rdf-syntax-ns#"
   xmlns:svg="http://www.w3.org/2000/svg"
   xmlns="http://www.w3.org/2000/svg"
   xmlns:xlink="http://www.w3.org/1999/xlink"
   xmlns:sodipodi="http://sodipodi.sourceforge.net/DTD/sodipodi-0.dtd"
   xmlns:inkscape="http://www.inkscape.org/namespaces/inkscape"
   width="500"
   height="325"
   viewBox="0 0 500.00001 325"
   id="svg6659"
   version="1.1"
   inkscape:version="0.91 r13725"
   sodipodi:docname="2019-12-01-apartment.svg">
  <defs
     id="defs6661" />
  <sodipodi:namedview
     id="base"
     pagecolor="#ffffff"
     bordercolor="#666666"
     borderopacity="1.0"
     inkscape:pageopacity="0.0"
     inkscape:pageshadow="2"
     inkscape:zoom="0.7"
     inkscape:cx="358.41913"
     inkscape:cy="17.549777"
     inkscape:document-units="px"
     inkscape:current-layer="layer1"
     showgrid="false"
     units="px"
     inkscape:window-width="1364"
     inkscape:window-height="700"
     inkscape:window-x="0"
     inkscape:window-y="0"
     inkscape:window-maximized="1" />
  <metadata
     id="metadata6664">
    <rdf:RDF>
      <cc:Work
         rdf:about="">
        <dc:format>image/svg+xml</dc:format>
        <dc:type
           rdf:resource="http://purl.org/dc/dcmitype/StillImage" />
        <dc:title></dc:title>
      </cc:Work>
    </rdf:RDF>
  </metadata>
  <g
     inkscape:label="Layer 1"
     inkscape:groupmode="layer"
     id="layer1">
    <rect
       style="fill:#ffffff;fill-opacity:1;stroke:#000000;stroke-width:1;stroke-miterlimit:4;stroke-dasharray:none"
       id="rect3336"
       width="260.92239"
       height="260.92239"
       x="32.567932"
       y="36.18671" />
    <rect
       style="fill:none;fill-opacity:1;stroke:#000000;stroke-width:1;stroke-miterlimit:4;stroke-dasharray:none"
       id="rect4178"
       width="43.487061"
       height="43.487061"
       x="32.567932"
       y="36.18671" />
    <rect
       y="253.62204"
       x="32.567932"
       height="43.487061"
       width="43.487061"
       id="rect4180"
       style="fill:none;fill-opacity:1;stroke:#000000;stroke-width:1;stroke-miterlimit:4;stroke-dasharray:none" />
    <rect
       y="36.18671"
       x="250.00325"
       height="43.487061"
       width="43.487061"
       id="rect4184"
       style="fill:none;fill-opacity:1;stroke:#000000;stroke-width:1;stroke-miterlimit:4;stroke-dasharray:none" />
    <rect
       style="fill:none;fill-opacity:1;stroke:#000000;stroke-width:1;stroke-miterlimit:4;stroke-dasharray:none"
       id="rect4186"
       width="43.487061"
       height="43.487061"
       x="250.00325"
       y="253.62204" />
    <rect
       style="fill:none;fill-opacity:1;stroke:#000000;stroke-width:1;stroke-miterlimit:4;stroke-dasharray:none"
       id="rect4190"
       width="43.487061"
       height="43.487061"
       x="163.02913"
       y="79.673775" />
    <text
       xml:space="preserve"
       style="font-style:normal;font-weight:normal;font-size:15px;line-height:125%;font-family:sans-serif;letter-spacing:0px;word-spacing:0px;fill:#000000;fill-opacity:1;stroke:none;stroke-width:1px;stroke-linecap:butt;stroke-linejoin:miter;stroke-opacity:1"
       x="132.26997"
       y="60.935459"
       id="text4236"
       sodipodi:linespacing="125%"><tspan
         sodipodi:role="line"
         id="tspan4238"
         x="132.26997"
         y="60.935459">Hallways</tspan></text>
    <text
       sodipodi:linespacing="125%"
       id="text4240"
       y="279.43143"
       x="132.26997"
       style="font-style:normal;font-weight:normal;font-size:15px;line-height:125%;font-family:sans-serif;letter-spacing:0px;word-spacing:0px;fill:#000000;fill-opacity:1;stroke:none;stroke-width:1px;stroke-linecap:butt;stroke-linejoin:miter;stroke-opacity:1"
       xml:space="preserve"><tspan
         y="279.43143"
         x="132.26997"
         id="tspan4242"
         sodipodi:role="line">Hallways</tspan></text>
    <path
       style="fill:none;fill-rule:evenodd;stroke:#000000;stroke-width:1px;stroke-linecap:butt;stroke-linejoin:miter;stroke-opacity:1"
       d="m 260.06434,70.112687 0,-7.95496 7.95496,0 0,-7.95496 7.95495,0 0,-7.95495 7.95496,0"
       id="path4284"
       inkscape:connector-curvature="0" />
    <path
       inkscape:connector-curvature="0"
       id="path4286"
       d="m 42.629032,70.112687 0,-7.95496 7.95496,0 0,-7.95496 7.95495,0 0,-7.95495 7.95496,0"
       style="fill:none;fill-rule:evenodd;stroke:#000000;stroke-width:1px;stroke-linecap:butt;stroke-linejoin:miter;stroke-opacity:1" />
    <path
       style="fill:none;fill-rule:evenodd;stroke:#000000;stroke-width:1px;stroke-linecap:butt;stroke-linejoin:miter;stroke-opacity:1"
       d="m 42.629032,287.54804 0,-7.95496 7.95496,0 0,-7.95496 7.95495,0 0,-7.95495 7.95496,0"
       id="path4288"
       inkscape:connector-curvature="0" />
    <path
       inkscape:connector-curvature="0"
       id="path4294"
       d="m 260.06434,287.54804 0,-7.95496 7.95496,0 0,-7.95496 7.95495,0 0,-7.95495 7.95496,0"
       style="fill:none;fill-rule:evenodd;stroke:#000000;stroke-width:1px;stroke-linecap:butt;stroke-linejoin:miter;stroke-opacity:1" />
    <use
       x="0"
       y="0"
       xlink:href="#g4386"
       id="use4392"
       transform="translate(188.61714,43.634387)"
       width="100%"
       height="100%" />
    <g
       id="g4300"
       transform="translate(-91.882858,-89.865603)">
      <rect
         y="169.53938"
         x="124.45079"
         height="43.487061"
         width="43.487061"
         id="rect4212"
         style="fill:none;fill-opacity:1;stroke:#000000;stroke-width:1;stroke-miterlimit:4;stroke-dasharray:none" />
      <g
         id="g4386">
        <rect
           style="fill:#a35628;fill-opacity:1;stroke:#000000;stroke-width:1;stroke-miterlimit:4;stroke-dasharray:none"
           id="rect4296"
           width="18.738329"
           height="35.178562"
           x="136.82515"
           y="173.69363" />
        <circle
           style="fill:#ffff00;fill-opacity:1;stroke:#000000;stroke-width:1;stroke-miterlimit:4;stroke-dasharray:none"
           id="path4298"
           cx="151.67441"
           cy="191.28291"
           r="1.9445436" />
      </g>
    </g>
    <use
       x="0"
       y="0"
       xlink:href="#g4300"
       id="use4305"
       transform="translate(2.8571428e-7,43.487057)"
       width="100%"
       height="100%" />
    <use
       height="100%"
       width="100%"
       transform="translate(2.8571428e-7,86.974117)"
       id="use4307"
       xlink:href="#g4300"
       y="0"
       x="0" />
    <use
       x="0"
       y="0"
       xlink:href="#g4300"
       id="use4309"
       transform="translate(2.8571428e-7,130.46118)"
       width="100%"
       height="100%" />
    <use
       height="100%"
       width="100%"
       transform="translate(217.43532,43.487107)"
       id="use4311"
       xlink:href="#g4300"
       y="0"
       x="0" />
    <use
       x="0"
       y="0"
       xlink:href="#g4300"
       id="use4313"
       transform="translate(217.43532,86.974167)"
       width="100%"
       height="100%" />
    <use
       height="100%"
       width="100%"
       transform="translate(217.43532,130.46123)"
       id="use4315"
       xlink:href="#g4300"
       y="0"
       x="0" />
    <use
       x="0"
       y="0"
       xlink:href="#g4300"
       id="use4317"
       transform="translate(217.43532,-2.8571429e-6)"
       width="100%"
       height="100%" />
    <rect
       style="fill:none;fill-opacity:1;stroke:#000000;stroke-width:1;stroke-miterlimit:4;stroke-dasharray:none"
       id="rect4339"
       width="43.487064"
       height="21.743526"
       x="163.02913"
       y="79.673775" />
    <g
       id="g4397"
       transform="translate(-91.882858,-89.865603)">
      <rect
         y="171.26295"
         x="269.62863"
         height="18.296389"
         width="14.053747"
         id="rect4335"
         style="fill:#c0c0c0;fill-opacity:1;stroke:#000000;stroke-width:1;stroke-miterlimit:4;stroke-dasharray:none" />
      <path
         inkscape:connector-curvature="0"
         id="path4343"
         d="m 276.65552,171.26295 0,18.29639"
         style="fill:none;fill-rule:evenodd;stroke:#000000;stroke-width:1px;stroke-linecap:butt;stroke-linejoin:miter;stroke-opacity:1" />
    </g>
    <use
       x="0"
       y="0"
       xlink:href="#g4300"
       id="use4345"
       transform="translate(86.974144,43.487107)"
       width="100%"
       height="100%" />
    <use
       height="100%"
       width="100%"
       transform="translate(86.974144,86.974167)"
       id="use4347"
       xlink:href="#g4300"
       y="0"
       x="0" />
    <use
       x="0"
       y="0"
       xlink:href="#g4300"
       id="use4349"
       transform="translate(86.974144,130.46123)"
       width="100%"
       height="100%" />
    <use
       height="100%"
       width="100%"
       transform="translate(86.974144,-2.8571429e-6)"
       id="use4351"
       xlink:href="#g4300"
       y="0"
       x="0" />
    <use
       height="100%"
       width="100%"
       transform="translate(130.4612,43.487107)"
       id="use4353"
       xlink:href="#g4300"
       y="0"
       x="0" />
    <use
       x="0"
       y="0"
       xlink:href="#g4300"
       id="use4355"
       transform="translate(130.4612,86.974167)"
       width="100%"
       height="100%" />
    <use
       height="100%"
       width="100%"
       transform="translate(130.4612,130.46123)"
       id="use4357"
       xlink:href="#g4300"
       y="0"
       x="0" />
    <text
       xml:space="preserve"
       style="font-style:normal;font-weight:normal;font-size:15px;line-height:125%;font-family:sans-serif;letter-spacing:0px;word-spacing:0px;fill:#000000;fill-opacity:1;stroke:none;stroke-width:1px;stroke-linecap:butt;stroke-linejoin:miter;stroke-opacity:1"
       x="354.66547"
       y="89.24308"
       id="text4359"
       sodipodi:linespacing="125%"><tspan
         sodipodi:role="line"
         id="tspan4361"
         x="354.66547"
         y="89.24308">    Legend</tspan><tspan
         sodipodi:role="line"
         x="354.66547"
         y="107.99308"
         id="tspan4384" /><tspan
         sodipodi:role="line"
         x="354.66547"
         y="126.74308"
         id="tspan4409">= Stairs</tspan><tspan
         sodipodi:role="line"
         x="354.66547"
         y="145.49307"
         id="tspan4365" /><tspan
         sodipodi:role="line"
         x="354.66547"
         y="164.24307"
         id="tspan4407">= Elevators</tspan><tspan
         sodipodi:role="line"
         x="354.66547"
         y="182.99307"
         id="tspan4367" /><tspan
         sodipodi:role="line"
         x="354.66547"
         y="201.74307"
         id="tspan4405">= Utility closet</tspan><tspan
         sodipodi:role="line"
         x="354.66547"
         y="220.49307"
         id="tspan4403" /><tspan
         sodipodi:role="line"
         x="354.66547"
         y="239.24307"
         id="tspan4363">= Room</tspan></text>
    <g
       id="g4380"
       transform="matrix(0.89247772,-0.45109147,0.45109147,0.89247772,-153.04591,54.263147)">
      <path
         sodipodi:nodetypes="cccscc"
         inkscape:connector-curvature="0"
         d="m 270.51251,204.71795 0,-3.44715 19.35706,0 c 0.9519,-1e-5 1.72357,0.77167 1.72357,1.72357 0,0.9519 -0.77167,1.72357 -1.72357,1.72357 z"
         style="fill:#a35628;fill-opacity:1;stroke:#000000;stroke-width:1;stroke-miterlimit:4;stroke-dasharray:none"
         id="path4371" />
      <path
         inkscape:connector-curvature="0"
         id="path4378"
         d="m 270.51251,201.2708 c 0,0 -4.76251,-1.7836 -6.07501,-2.1586 -1.3125,-0.375 -1.5,0.8125 -0.75,1.5 -0.6875,0.625 -0.6875,1 -0.1875,1.5625 -0.5,0.4375 -0.5625,1.25 -0.0625,1.625 -0.5625,0.5 -0.6875,1.125 -0.1875,1.4375 -0.5,0.6875 -0.3125,2.0625 0.125,1.875 0.4375,-0.1875 7.13751,-2.39425 7.13751,-2.39425 z"
         style="fill:#ffff00;fill-rule:evenodd;stroke:#000000;stroke-width:1px;stroke-linecap:butt;stroke-linejoin:miter;stroke-opacity:1" />
    </g>
    <use
       x="0"
       y="0"
       xlink:href="#g4380"
       id="use4395"
       transform="translate(149.38508,84.999997)"
       width="100%"
       height="100%" />
    <use
       x="0"
       y="0"
       xlink:href="#g4397"
       id="use4401"
       transform="translate(150.03881,68.999997)"
       width="100%"
       height="100%" />
    <path
       inkscape:connector-curvature="0"
       id="path4411"
       d="m 323.12902,134.61269 0,-7.95496 7.95496,0 0,-7.95496 7.95495,0 0,-7.95495 7.95496,0"
       style="fill:none;fill-rule:evenodd;stroke:#000000;stroke-width:1px;stroke-linecap:butt;stroke-linejoin:miter;stroke-opacity:1" />
  </g>
</svg>
