<?xml version="1.0" encoding="UTF-8" standalone="no"?>
<!-- Created with Inkscape (http://www.inkscape.org/) -->

<svg
   xmlns:dc="http://purl.org/dc/elements/1.1/"
   xmlns:cc="http://creativecommons.org/ns#"
   xmlns:rdf="http://www.w3.org/1999/02/22-rdf-syntax-ns#"
   xmlns:svg="http://www.w3.org/2000/svg"
   xmlns="http://www.w3.org/2000/svg"
   xmlns:xlink="http://www.w3.org/1999/xlink"
   xmlns:sodipodi="http://sodipodi.sourceforge.net/DTD/sodipodi-0.dtd"
   xmlns:inkscape="http://www.inkscape.org/namespaces/inkscape"
   width="400"
   height="550"
   viewBox="0 0 400 550.00001"
   id="svg6311"
   version="1.1"
   inkscape:version="0.91 r13725"
   sodipodi:docname="2019-12-01-decor.svg">
  <defs
     id="defs6313">
    <linearGradient
       inkscape:collect="always"
       xlink:href="#linearGradient4699"
       id="linearGradient4705"
       x1="583.64478"
       y1="551.86218"
       x2="583.64478"
       y2="522.36481"
       gradientUnits="userSpaceOnUse"
       gradientTransform="translate(-325.85224,-119.08682)" />
    <linearGradient
       inkscape:collect="always"
       id="linearGradient4699">
      <stop
         style="stop-color:#e1c9af;stop-opacity:1"
         offset="0"
         id="stop4701" />
      <stop
         id="stop4713"
         offset="0.06"
         style="stop-color:#caa073;stop-opacity:1" />
      <stop
         id="stop4709"
         offset="0.12"
         style="stop-color:#bb884e;stop-opacity:1" />
      <stop
         style="stop-color:#8f6c44;stop-opacity:1"
         offset="0.25999999"
         id="stop4711" />
      <stop
         id="stop4707"
         offset="0.40000001"
         style="stop-color:#72522c;stop-opacity:1" />
      <stop
         style="stop-color:#72522c;stop-opacity:1"
         offset="1"
         id="stop4703" />
    </linearGradient>
    <linearGradient
       inkscape:collect="always"
       xlink:href="#linearGradient4685"
       id="linearGradient4691"
       x1="583.64478"
       y1="597.86218"
       x2="583.64478"
       y2="631.35962"
       gradientUnits="userSpaceOnUse"
       gradientTransform="translate(-325.85224,-119.08682)" />
    <linearGradient
       inkscape:collect="always"
       id="linearGradient4685">
      <stop
         style="stop-color:#e6e6e6;stop-opacity:1;"
         offset="0"
         id="stop4687" />
      <stop
         id="stop4695"
         offset="0.15000001"
         style="stop-color:#b0b0b0;stop-opacity:1" />
      <stop
         id="stop4693"
         offset="0.31999999"
         style="stop-color:#666666;stop-opacity:1" />
      <stop
         style="stop-color:#666666;stop-opacity:1"
         offset="1"
         id="stop4689" />
    </linearGradient>
    <linearGradient
       inkscape:collect="always"
       xlink:href="#linearGradient4501"
       id="linearGradient4507"
       x1="307.5"
       y1="444.36218"
       x2="307.5"
       y2="522.36218"
       gradientUnits="userSpaceOnUse"
       gradientTransform="matrix(1.3364486,0,0,1.3364486,-74.574493,-539.6185)" />
    <linearGradient
       inkscape:collect="always"
       id="linearGradient4501">
      <stop
         style="stop-color:#00c0ff;stop-opacity:1"
         offset="0"
         id="stop4503" />
      <stop
         style="stop-color:#d3e9f5;stop-opacity:1"
         offset="1"
         id="stop4505" />
    </linearGradient>
  </defs>
  <sodipodi:namedview
     id="base"
     pagecolor="#ffffff"
     bordercolor="#666666"
     borderopacity="1.0"
     inkscape:pageopacity="0.0"
     inkscape:pageshadow="2"
     inkscape:zoom="1"
     inkscape:cx="319.85714"
     inkscape:cy="289"
     inkscape:document-units="px"
     inkscape:current-layer="svg6311"
     showgrid="false"
     units="px"
     inkscape:window-width="1364"
     inkscape:window-height="700"
     inkscape:window-x="0"
     inkscape:window-y="0"
     inkscape:window-maximized="1" />
  <metadata
     id="metadata6316">
    <rdf:RDF>
      <cc:Work
         rdf:about="">
        <dc:format>image/svg+xml</dc:format>
        <dc:type
           rdf:resource="http://purl.org/dc/dcmitype/StillImage" />
        <dc:title></dc:title>
      </cc:Work>
    </rdf:RDF>
  </metadata>
  <g
     inkscape:label="Layer 1"
     inkscape:groupmode="layer"
     id="layer1">
    <rect
       style="fill:#008000;fill-opacity:1;stroke:none;stroke-width:1;stroke-miterlimit:4;stroke-dasharray:none"
       id="rect4497"
       width="286"
       height="84.864487"
       x="50.383442"
       y="177.87022" />
    <rect
       y="24.846846"
       x="50.383442"
       height="153.02336"
       width="286"
       id="rect4499"
       style="fill:url(#linearGradient4507);fill-opacity:1;stroke:none;stroke-width:1;stroke-miterlimit:4;stroke-dasharray:none" />
    <path
       style="fill:#b0d9ff;fill-opacity:1;fill-rule:evenodd;stroke:#000000;stroke-width:1px;stroke-linecap:butt;stroke-linejoin:miter;stroke-opacity:1"
       d="m 141.26194,215.2908 74.1729,2.67289 0,-181.757008 -74.1729,12.69627 z"
       id="path4432"
       inkscape:connector-curvature="0"
       sodipodi:nodetypes="ccccc" />
    <path
       sodipodi:nodetypes="ccccc"
       inkscape:connector-curvature="0"
       id="path4434"
       d="m 234.81335,207.2721 -19.37851,10.69159 0,-181.757008 19.37851,42.76636 z"
       style="fill:#b0d9ff;fill-opacity:1;fill-rule:evenodd;stroke:#000000;stroke-width:1px;stroke-linecap:butt;stroke-linejoin:miter;stroke-opacity:1" />
    <path
       style="fill:none;fill-rule:evenodd;stroke:#000000;stroke-width:1px;stroke-linecap:butt;stroke-linejoin:miter;stroke-opacity:1"
       d="m 141.26194,132.09687 74.1729,-5.01168 19.37851,16.03738"
       id="path4443"
       inkscape:connector-curvature="0" />
    <path
       style="fill:none;fill-rule:evenodd;stroke:#000000;stroke-width:1px;stroke-linecap:butt;stroke-linejoin:miter;stroke-opacity:1"
       d="m 141.26194,65.541732 74.1729,-11.15935 19.37851,37.420567"
       id="path4475"
       inkscape:connector-curvature="0" />
    <path
       style="fill:none;fill-rule:evenodd;stroke:#000000;stroke-width:1px;stroke-linecap:butt;stroke-linejoin:miter;stroke-opacity:1"
       d="m 141.26194,82.180522 74.1729,-9.62243 19.37851,32.074758"
       id="path4477"
       inkscape:connector-curvature="0" />
    <path
       style="fill:none;fill-rule:evenodd;stroke:#000000;stroke-width:1px;stroke-linecap:butt;stroke-linejoin:miter;stroke-opacity:1"
       d="m 141.26194,98.819299 74.1729,-8.08551 19.37851,26.728971"
       id="path4481"
       inkscape:connector-curvature="0" />
    <path
       style="fill:none;fill-rule:evenodd;stroke:#000000;stroke-width:1px;stroke-linecap:butt;stroke-linejoin:miter;stroke-opacity:1"
       d="m 141.26194,115.45809 74.1729,-6.5486 19.37851,21.38318"
       id="path4485"
       inkscape:connector-curvature="0" />
    <path
       style="fill:none;fill-rule:evenodd;stroke:#000000;stroke-width:1px;stroke-linecap:butt;stroke-linejoin:miter;stroke-opacity:1"
       d="m 141.26194,148.73566 74.1729,-3.47477 19.37851,10.69159"
       id="path4487"
       inkscape:connector-curvature="0" />
    <path
       style="fill:none;fill-rule:evenodd;stroke:#000000;stroke-width:1px;stroke-linecap:butt;stroke-linejoin:miter;stroke-opacity:1"
       d="m 141.26194,165.37444 74.1729,-1.93785 19.37851,5.34579"
       id="path4489"
       inkscape:connector-curvature="0" />
    <path
       style="fill:none;fill-rule:evenodd;stroke:#000000;stroke-width:1px;stroke-linecap:butt;stroke-linejoin:miter;stroke-opacity:1"
       d="m 141.26194,182.01323 74.1729,-0.40094 19.37851,0"
       id="path4491"
       inkscape:connector-curvature="0" />
    <path
       style="fill:none;fill-rule:evenodd;stroke:#000000;stroke-width:1px;stroke-linecap:butt;stroke-linejoin:miter;stroke-opacity:1"
       d="m 141.26194,198.65201 74.1729,1.13598 19.37851,-5.34579"
       id="path4493"
       inkscape:connector-curvature="0" />
    <path
       style="fill:#ffffff;fill-rule:evenodd;stroke:#000000;stroke-width:1px;stroke-linecap:butt;stroke-linejoin:miter;stroke-opacity:1"
       d="m 152.9187,57.853302 50.85937,-8.58089 0,12.28424 -50.85937,7.54212 z"
       id="path4495"
       inkscape:connector-curvature="0" />
    <text
       xml:space="preserve"
       style="font-style:normal;font-weight:normal;font-size:20.04672813px;line-height:125%;font-family:sans-serif;letter-spacing:0px;word-spacing:0px;fill:#000000;fill-opacity:1;stroke:none;stroke-width:1px;stroke-linecap:butt;stroke-linejoin:miter;stroke-opacity:1"
       id="text4513"
       sodipodi:linespacing="125%"
       y="92.062508"
       x="155.62878"
       transform="matrix(1,-0.16650406,0,1,0,0)"><tspan
         sodipodi:role="line"
         id="tspan4515"
         x="155.62878"
         y="92.062508"
         style="font-size:10.02336407px">Toybox #1</tspan></text>
    <rect
       style="fill:#b0d9ff;fill-opacity:1;stroke:#000000;stroke-width:1;stroke-miterlimit:4;stroke-dasharray:none"
       id="rect4764"
       width="313.95541"
       height="233.34525"
       x="43.732552"
       y="298.01947" />
    <rect
       style="fill:#ffffff;fill-opacity:1;stroke:#000000;stroke-width:1;stroke-miterlimit:4;stroke-dasharray:none"
       id="rect4534"
       width="98.5"
       height="46"
       x="151.38347"
       y="325.27545" />
    <text
       xml:space="preserve"
       style="font-style:normal;font-weight:normal;font-size:15px;line-height:125%;font-family:sans-serif;text-align:center;letter-spacing:0px;word-spacing:0px;text-anchor:middle;fill:#000000;fill-opacity:1;stroke:none;stroke-width:1px;stroke-linecap:butt;stroke-linejoin:miter;stroke-opacity:1"
       x="199.56441"
       y="342.77545"
       id="text4524"
       sodipodi:linespacing="125%"><tspan
         sodipodi:role="line"
         id="tspan4526"
         x="199.56441"
         y="342.77545">Welcome to</tspan><tspan
         sodipodi:role="line"
         x="199.56441"
         y="361.52545"
         id="tspan4528">Toybox #1</tspan></text>
    <g
       transform="translate(-333.11656,-119.08676)"
       id="g4582">
      <path
         sodipodi:nodetypes="sccccs"
         inkscape:connector-curvature="0"
         d="m 640.625,521.34145 c -3.1066,0 -5.625,-2.54142 -5.625,-5.67642 l 0,-18.11297 11.24999,0 10e-6,18.11297 c 0,3.135 -2.5184,5.67642 -5.625,5.67642 z"
         style="fill:#c0c0c0;fill-opacity:1;stroke:#000000;stroke-width:1;stroke-miterlimit:4;stroke-dasharray:none"
         id="path4560" />
      <circle
         r="16.25"
         cy="483.11224"
         cx="640.25"
         id="path4536"
         style="fill:#ffffb0;fill-opacity:1;stroke:#000000;stroke-width:1;stroke-miterlimit:4;stroke-dasharray:none" />
    </g>
    <rect
       style="fill:#999999;fill-opacity:1;stroke:#000000;stroke-width:1;stroke-miterlimit:4;stroke-dasharray:none"
       id="rect4296-0"
       width="78.295502"
       height="147.17856"
       x="121.51432"
       y="384.18616" />
    <rect
       y="384.18616"
       x="199.80995"
       height="147.17856"
       width="78.295502"
       id="rect4580"
       style="fill:#999999;fill-opacity:1;stroke:#000000;stroke-width:1;stroke-miterlimit:4;stroke-dasharray:none" />
    <use
       x="0"
       y="0"
       xlink:href="#g4582"
       id="use4586"
       transform="translate(-218,-1.1571429e-5)"
       width="100%"
       height="100%" />
    <rect
       style="fill:url(#linearGradient4691);fill-opacity:1;stroke:#000000;stroke-width:0.5;stroke-miterlimit:4;stroke-dasharray:none"
       id="rect4683"
       width="156.59109"
       height="33.497437"
       x="121.51432"
       y="478.77536" />
    <rect
       style="fill:#a5753f;fill-opacity:1;stroke:#000000;stroke-width:0.5;stroke-miterlimit:4;stroke-dasharray:none"
       id="rect4600"
       width="156.59109"
       height="46"
       x="121.51432"
       y="432.77536" />
    <use
       height="100%"
       width="100%"
       transform="matrix(0.16923077,0,0,0.17923576,106.47814,374.57625)"
       id="use4602"
       xlink:href="#g4582"
       y="0"
       x="0" />
    <use
       x="0"
       y="0"
       xlink:href="#g4582"
       id="use4604"
       transform="matrix(0.16923077,0,0,0.17923576,132.99464,374.57625)"
       width="100%"
       height="100%" />
    <use
       height="100%"
       width="100%"
       transform="matrix(0.16923077,0,0,0.17923576,157.92015,374.57625)"
       id="use4606"
       xlink:href="#g4582"
       y="0"
       x="0" />
    <use
       x="0"
       y="0"
       xlink:href="#g4582"
       id="use4608"
       transform="matrix(0.16923077,0,0,0.17923576,183.02244,374.57625)"
       width="100%"
       height="100%" />
    <g
       id="g4665"
       transform="matrix(0.47674485,0,0,0.47674485,-73.156656,193.48889)">
      <g
         id="g4649">
        <path
           style="fill:#008000;fill-rule:evenodd;stroke:#000000;stroke-width:1px;stroke-linecap:butt;stroke-linejoin:miter;stroke-opacity:1"
           d="m 503.5,571.4872 c 0,-1.45833 0,-2.91666 0,-4.375 0,-0.29166 0,-0.58333 0,-0.875 0,-0.125 0.0245,-0.25242 0,-0.375 -0.0183,-0.0914 -0.10673,-0.15864 -0.125,-0.25 -0.0409,-0.20428 0.0505,-0.42288 0,-0.625 -0.0226,-0.0904 -0.1024,-0.15961 -0.125,-0.25 -0.0202,-0.0808 0.0202,-0.16915 0,-0.25 -0.0226,-0.0904 -0.1024,-0.15961 -0.125,-0.25 -0.0202,-0.0808 0.0202,-0.16915 0,-0.25 -0.0226,-0.0904 -0.1024,-0.15961 -0.125,-0.25 -0.0202,-0.0808 0,-0.16666 0,-0.25 0,-0.20833 0,-0.41666 0,-0.625 0,-0.54166 0,-1.08333 0,-1.625 0,-0.625 0,-1.25 0,-1.875 0,-0.25 0,-0.5 0,-0.75 0,-0.0833 -0.0263,-0.17094 0,-0.25 0.0295,-0.0884 0.10673,-0.15864 0.125,-0.25 0.0409,-0.20428 -0.0409,-0.42071 0,-0.625 0.0258,-0.1292 0.0992,-0.24579 0.125,-0.375 0.0163,-0.0817 -0.0202,-0.16915 0,-0.25 0.0226,-0.0904 0.10673,-0.15864 0.125,-0.25 0.0409,-0.20428 -0.0505,-0.42288 0,-0.625 0.0226,-0.0904 0.0955,-0.16161 0.125,-0.25 0.0443,-0.13282 -0.0443,-0.36717 0,-0.5 0.0295,-0.0884 0.1024,-0.15961 0.125,-0.25 0.0303,-0.12126 0,-0.25 0,-0.375 0,-0.29166 0,-0.58333 0,-0.875 0,-0.79166 0,-1.58333 0,-2.375 0,-1.375 0,-2.75 0,-4.125 0,-0.0589 -0.006,-0.61933 0,-0.625 0.0295,-0.0295 0.0955,0.0295 0.125,0 0.0295,-0.0295 0,-0.0833 0,-0.125 0,-0.0417 0,-0.0833 0,-0.125 0,-0.41666 0,-0.83333 0,-1.25 0,-0.33333 0,-0.66666 0,-1 0,-0.0417 0,-0.0833 0,-0.125 0,-0.0417 -0.0295,-0.0955 0,-0.125 0.0295,-0.0295 0.0955,0.0295 0.125,0 0.0625,-0.0625 -0.0625,-0.3125 0,-0.375 0.0295,-0.0295 0.0955,0.0295 0.125,0 0.0625,-0.0625 -0.0625,-0.3125 0,-0.375 0.0295,-0.0295 0.0955,0.0295 0.125,0 0.0295,-0.0295 -0.0295,-0.0955 0,-0.125 0.0295,-0.0295 0.0955,0.0295 0.125,0 0.0589,-0.0589 -0.0589,-0.19107 0,-0.25 0.0125,-0.0125 0.3625,-0.0125 0.375,0 0.0295,0.0295 -0.0295,0.0955 0,0.125 0.0295,0.0295 0.0955,-0.0295 0.125,0 0.0295,0.0295 -0.0186,0.0877 0,0.125 0.0263,0.0527 0.0923,0.076 0.125,0.125 0.2754,0.063 0.0661,0.25715 0.125,0.375 0.075,0.15 0.3,0.225 0.375,0.375 0.0186,0.0373 -0.0132,0.0855 0,0.125 0.0295,0.0884 0.0833,0.16667 0.125,0.25 0.0833,0.16667 0.16667,0.33334 0.25,0.5 0.0417,0.0833 0.1024,0.15962 0.125,0.25 0.0202,0.0808 -0.0263,0.17095 0,0.25 0.0186,0.0559 0.10637,0.0691 0.125,0.125 0.0791,0.11217 -0.0395,0.25642 0,0.375 0.0295,0.0884 0.0955,0.16162 0.125,0.25 0.0132,0.0395 0,0.0833 0,0.125 0,0.10234 -0.027,0.54401 0,0.625 0.0295,0.0884 0.1024,0.15962 0.125,0.25 0.0254,0.10165 0,0.61915 0,0.75 0,0.0833 0,0.16667 0,0.25 0,0.0417 -0.0186,0.0877 0,0.125 0.0263,0.0527 0.10637,0.0691 0.125,0.125 0.0263,0.0791 0,0.16667 0,0.25 0,0.0833 0,0.16667 0,0.25 0,0.5 0,1 0,1.5 0,0.11773 -0.0237,0.5539 0,0.625 0.0186,0.0559 0.10637,0.0691 0.125,0.125 0.023,0.0691 0,0.62412 0,0.75 0,0.5 0,1 0,1.5 0,0.16124 -0.0283,0.79009 0,0.875 0.0295,0.0884 0.0955,0.16162 0.125,0.25 0.0226,0.0676 0,0.45742 0,0.5 0,0.25 0,0.5 0,0.75 0,0.79167 0,1.58334 0,2.375 0,0.087 -0.0226,0.5798 0,0.625 0.0263,0.0527 0.0987,0.0723 0.125,0.125 0.038,0.0759 -0.038,0.6741 0,0.75 0.0263,0.0527 0.0987,0.0723 0.125,0.125 0.019,0.038 0,0.41369 0,0.5 0,0.375 0,0.75 0,1.125 0,0.0956 0.0176,0.83984 0,0.875 -0.0263,0.0527 -0.10637,0.0691 -0.125,0.125 -0.0263,0.0791 0,0.16667 0,0.25 0,0.0417 0.0186,0.0877 0,0.125 -0.0263,0.0527 -0.0987,0.0723 -0.125,0.125 -0.0186,0.0373 0,0.0833 0,0.125 0,0.0833 0.0263,0.17095 0,0.25 -0.0186,0.0559 -0.0987,0.0723 -0.125,0.125 -0.05,0.1 0.05,0.275 0,0.375 -0.0263,0.0527 -0.0987,0.0723 -0.125,0.125 -0.0278,0.0556 0.0191,0.44283 0,0.5 -0.0186,0.0559 -0.0987,0.0723 -0.125,0.125 -0.0186,0.0373 0,0.0833 0,0.125 0,0.0526 0.0186,0.71282 0,0.75 -0.0263,0.0527 -0.0987,0.0723 -0.125,0.125 -0.0232,0.0464 0,0.76836 0,0.875 0,0.54167 0,1.08334 0,1.625 0,1.875 0,3.75 0,5.625 0,0.58334 0,1.16667 0,1.75 0,0.16939 0.0276,0.7923 0,0.875 -0.0186,0.0559 -0.0987,0.0723 -0.125,0.125 -0.0339,0.0678 0.0342,0.4658 0,0.5 -0.0295,0.0295 -0.0955,-0.0295 -0.125,0 -0.0625,0.0625 0.0625,0.3125 0,0.375 -0.0295,0.0295 -0.0955,-0.0295 -0.125,0 -0.0625,0.0625 0.0625,0.3125 0,0.375 -0.0295,0.0295 -0.0955,-0.0295 -0.125,0 -0.0589,0.0589 0.0589,0.19108 0,0.25 -0.0295,0.0295 -0.0955,-0.0295 -0.125,0 -0.0301,0.0301 0.0301,0.46993 0,0.5 -0.0295,0.0295 -0.10637,-0.0373 -0.125,0 -0.0373,0.0745 0.0263,0.17095 0,0.25 -0.0186,0.0559 -0.0987,0.0723 -0.125,0.125 -0.0248,0.0496 0.0256,0.34945 0,0.375 -0.0295,0.0295 -0.0955,-0.0295 -0.125,0 -0.0295,0.0295 0.0295,0.0955 0,0.125 -0.0295,0.0295 -0.0955,-0.0295 -0.125,0 -0.0295,0.0295 0.0295,0.0955 0,0.125 -0.0295,0.0295 -0.0955,-0.0295 -0.125,0 -0.0589,0.0589 0.0263,0.17095 0,0.25 -0.0295,0.0884 -0.0955,0.16162 -0.125,0.25 -0.0132,0.0395 0.0295,0.0955 0,0.125 -0.0295,0.0295 -0.0955,-0.0295 -0.125,0 -0.0295,0.0295 0.0295,0.0955 0,0.125 -0.0295,0.0295 -0.0955,-0.0295 -0.125,0 -0.0295,0.0295 0.0295,0.0955 0,0.125 -0.0295,0.0295 -0.0833,0 -0.125,0 -0.0417,0 -0.0833,0 -0.125,0 -0.0303,0 -0.37098,-0.004 -0.375,0 -0.0295,0.0295 0.0295,0.0955 0,0.125 -0.0589,0.0589 -0.19107,-0.0589 -0.25,0 -0.0295,0.0295 0.0295,0.0955 0,0.125 -0.0295,0.0295 -0.0833,0 -0.125,0 -0.0303,0 -0.37098,0.004 -0.375,0 -0.0295,-0.0295 0,-0.0833 0,-0.125 0,-0.25 0,-0.5 0,-0.75 0,-0.0417 -0.0186,-0.0877 0,-0.125 0.0263,-0.0527 0.10637,-0.0691 0.125,-0.125 0.0443,-0.13282 -0.0443,-0.36717 0,-0.5 0.0295,-0.0884 0.0955,-0.16161 0.125,-0.25 0.0263,-0.0791 -0.0373,-0.17546 0,-0.25 0.0263,-0.0527 0.10637,-0.0691 0.125,-0.125 0.0263,-0.0791 -0.0263,-0.17094 0,-0.25 0.0186,-0.0559 0.0987,-0.0723 0.125,-0.125 0.0186,-0.0373 0,-0.0833 0,-0.125 0,-0.0833 -0.0263,-0.17094 0,-0.25 0.0186,-0.0559 0.0987,-0.0723 0.125,-0.125 0.0339,-0.0678 -0.0342,-0.46579 0,-0.5 0.0295,-0.0295 0.0955,0.0295 0.125,0 0.005,-0.005 0,-0.45409 0,-0.5 0,-0.0459 -0.005,-0.49497 0,-0.5 0.0295,-0.0295 0.0955,0.0295 0.125,0 0.0301,-0.0301 -0.0301,-0.46992 0,-0.5 0.0295,-0.0295 0.0955,0.0295 0.125,0 0.005,-0.005 0,-0.45409 0,-0.5 0,-0.0417 0,-0.0833 0,-0.125 0,-0.0417 -0.0295,-0.0955 0,-0.125 0.0295,-0.0295 0.0955,0.0295 0.125,0 0.0387,-0.0387 -0.0387,-0.58629 0,-0.625 0.0295,-0.0295 0.0955,0.0295 0.125,0 0.004,-0.004 0,-0.34468 0,-0.375 0,-0.375 0,-0.75 0,-1.125 0,-0.0417 0,-0.0833 0,-0.125 0,-0.0417 0.0295,-0.0955 0,-0.125 -0.16667,-0.16666 -0.125,0.20834 -0.125,-0.125 0,-0.0303 0.004,-0.37098 0,-0.375 -0.0295,-0.0295 -0.0955,0.0295 -0.125,0 -0.0295,-0.0295 0.0295,-0.0955 0,-0.125 -0.0295,-0.0295 -0.0955,0.0295 -0.125,0 -0.0589,-0.0589 0.0808,-0.27021 0,-0.25 -0.18077,0.0452 -0.33333,0.16667 -0.5,0.25 z"
           id="path4645"
           inkscape:connector-curvature="0" />
        <path
           style="fill:#008000;fill-rule:evenodd;stroke:#000000;stroke-width:1px;stroke-linecap:butt;stroke-linejoin:miter;stroke-opacity:1"
           d="m 497.66996,580.72198 c 1.80109,0.38799 0.25332,-0.64093 0.48336,-0.88388 0.0395,-0.0417 0.13732,0.0417 0.17678,0 0.0395,-0.0417 -0.006,-0.11785 -0.009,-0.17678 -0.003,-0.0589 -0.006,-0.11785 -0.009,-0.17678 -0.025,-0.4714 -0.0501,-0.9428 -0.0752,-1.41421 -0.0438,-0.82496 -0.0877,-1.64992 -0.13152,-2.47487 -0.004,-0.0744 -0.0273,-1.00808 -0.0564,-1.06066 -0.0413,-0.0745 -0.14494,-0.10224 -0.18617,-0.17678 -0.0621,-0.11213 0.0165,-0.76905 -0.047,-0.88388 -0.0413,-0.0745 -0.12412,-0.11785 -0.18617,-0.17678 -0.006,-0.11785 0.0245,-0.24175 -0.0188,-0.35355 -0.0305,-0.0791 -0.15562,-0.0977 -0.18617,-0.17678 -0.0432,-0.1118 0.0245,-0.24175 -0.0188,-0.35355 -0.0305,-0.0791 -0.14494,-0.10224 -0.18618,-0.17678 -0.0292,-0.0527 0.0122,-0.12088 -0.009,-0.17678 -0.0483,-0.125 -0.14726,-0.22855 -0.19556,-0.35355 -0.0432,-0.1118 0.0395,-0.24814 -0.0188,-0.35355 -0.0413,-0.0745 -0.14494,-0.10224 -0.18617,-0.17678 -0.0782,-0.14142 0.05,-0.38891 -0.0282,-0.53033 -0.0413,-0.0745 -0.14494,-0.10224 -0.18617,-0.17678 -0.0387,-0.0701 0.01,-0.49419 -0.0282,-0.53033 -0.0439,-0.0417 -0.1329,0.0417 -0.17677,0 -0.0448,-0.0425 0.007,-0.66457 -0.0376,-0.7071 -0.0439,-0.0417 -0.14763,0.0527 -0.17678,0 -0.0583,-0.10541 -0.0125,-0.23571 -0.0188,-0.35356 -0.01,-0.18505 -0.0128,-0.9169 -0.0564,-1.06066 -0.0388,-0.12783 -0.14725,-0.22855 -0.19557,-0.35355 -0.0443,-0.11454 -0.0393,-0.73916 -0.047,-0.88388 -0.025,-0.47141 -0.0501,-0.94281 -0.0751,-1.41422 -0.0219,-0.41248 -0.0439,-0.82496 -0.0658,-1.23744 -0.003,-0.0589 -0.0489,-0.13511 -0.009,-0.17677 0.0395,-0.0417 0.13733,0.0417 0.17678,0 0.0395,-0.0417 -0.0489,-0.13511 -0.009,-0.17678 0.0395,-0.0417 0.12546,0.0263 0.17678,0 0.0725,-0.0373 0.11158,-0.11785 0.16737,-0.17678 0.0558,-0.0589 0.13408,-0.10224 0.16739,-0.17677 0.0236,-0.0527 -0.0489,-0.13511 -0.009,-0.17678 0.34632,-0.36576 0.0154,0.55893 0.34416,-0.17678 0.0236,-0.0527 -0.033,-0.12407 -0.009,-0.17677 0.0333,-0.0745 0.1116,-0.11785 0.16739,-0.17678 0.0558,-0.0589 0.11159,-0.11785 0.16738,-0.17678 0.0985,-0.10397 0.63295,-0.62524 0.66953,-0.7071 0.0314,-0.0701 -0.0624,-0.49419 -0.0282,-0.53033 0.0395,-0.0417 0.13733,0.0417 0.17678,0 0.0395,-0.0417 -0.006,-0.11785 -0.009,-0.17678 -0.009,-0.17678 -0.0188,-0.35355 -0.0282,-0.53033 -0.0344,-0.64818 -0.0689,-1.29636 -0.10334,-1.94454 -0.008,-0.14803 -0.006,-0.74945 -0.047,-0.88389 -0.0388,-0.12782 -0.14725,-0.22855 -0.19557,-0.35355 -0.0488,-0.12638 -0.0552,-1.03893 -0.0658,-1.23744 -0.003,-0.0589 0.0198,-0.12407 -0.009,-0.17677 -0.0413,-0.0745 -0.14493,-0.10224 -0.18617,-0.17678 -0.0583,-0.10541 0.0395,-0.24814 -0.0188,-0.35355 -0.0413,-0.0745 -0.14495,-0.10224 -0.18618,-0.17678 -0.064,-0.11576 0.0137,-0.72701 -0.047,-0.88388 -0.0483,-0.125 -0.14726,-0.22856 -0.19557,-0.35356 -0.0432,-0.1118 0.0245,-0.24175 -0.0188,-0.35355 -0.0483,-0.125 -0.14725,-0.22855 -0.19556,-0.35355 -0.055,-0.14229 0.0249,-0.59415 -0.0376,-0.70711 -0.0412,-0.0745 -0.14494,-0.10224 -0.18617,-0.17678 -0.0252,-0.0457 -0.0497,-0.93536 -0.0564,-1.06066 -0.003,-0.0589 -0.006,-0.11785 -0.009,-0.17677 -0.003,-0.0589 0.0345,-0.13511 -0.009,-0.17678 -0.0439,-0.0417 -0.14762,0.0527 -0.17678,0 -0.023,-0.0416 -0.0314,-0.59098 -0.0376,-0.70711 -0.0251,-0.4714 -0.0501,-0.94281 -0.0752,-1.41421 -0.002,-0.0429 -0.0219,-0.52465 -0.0282,-0.53033 -0.0439,-0.0417 -0.1329,0.0417 -0.17677,0 -0.007,-0.007 -0.0341,-0.64219 -0.0376,-0.70711 -0.0282,-0.53033 -0.0564,-1.06066 -0.0846,-1.59099 -0.003,-0.0589 -0.006,-0.11785 -0.009,-0.17677 -0.003,-0.0589 -0.0489,-0.13511 -0.009,-0.17678 0.0395,-0.0417 0.13733,0.0417 0.17677,0 0.0789,-0.0833 -0.0977,-0.27022 -0.0188,-0.35355 0.0395,-0.0417 0.13733,0.0417 0.17678,0 0.0837,-0.0884 -0.11188,-0.44195 -0.0282,-0.53033 0.0395,-0.0417 0.13732,0.0417 0.17678,0 0.0395,-0.0417 -0.0489,-0.13511 -0.009,-0.17678 0.0395,-0.0417 0.1329,-0.0417 0.17677,0 0.0931,0.0884 -0.0649,0.44194 0.0282,0.53033 0.0439,0.0417 0.13289,-0.0417 0.17678,0 0.0931,0.0884 -0.0649,0.44194 0.0282,0.53033 0.0439,0.0417 0.13289,-0.0417 0.17678,0 0.0877,0.0833 -0.0689,0.27022 0.0188,0.35355 0.0439,0.0417 0.13289,-0.0417 0.17677,0 0.12421,0.11794 -0.10541,0.23562 0.0188,0.35356 0.0439,0.0417 0.13289,-0.0417 0.17678,0 0.0439,0.0417 0.006,0.11785 0.009,0.17677 0.0157,0.29463 0.0313,0.58926 0.047,0.88389 0.003,0.0589 -0.0345,0.13511 0.009,0.17677 0.0439,0.0417 0.13289,-0.0417 0.17678,0 0.0931,0.0884 -0.0649,0.44194 0.0282,0.53033 0.0439,0.0417 0.1329,-0.0417 0.17677,0 0.0877,0.0833 -0.0689,0.27022 0.0188,0.35356 0.0439,0.0417 0.1329,-0.0417 0.17678,0 0.0877,0.0833 -0.0689,0.27022 0.0188,0.35355 0.0439,0.0417 0.13289,-0.0417 0.17678,0 0.0877,0.0833 -0.0395,0.24814 0.0188,0.35355 0.0413,0.0745 0.14494,0.10224 0.18616,0.17678 0.0388,0.0701 -0.01,0.49419 0.0282,0.53033 0.0439,0.0417 0.13289,-0.0417 0.17678,0 0.0439,0.0417 0.006,0.11785 0.009,0.17678 0.0188,0.35355 0.0376,0.7071 0.0564,1.06066 0.003,0.0589 -0.0345,0.13511 0.009,0.17677 0.0439,0.0417 0.1329,-0.0417 0.17678,0 0.006,0.006 0.0259,0.48746 0.0282,0.53033 0.0532,1.00174 0.10647,2.00347 0.1597,3.00521 0.0532,1.00173 0.10647,2.00347 0.15971,3.0052 0.0157,0.29463 0.0313,0.58926 0.047,0.88388 0.003,0.0589 0.006,0.11786 0.009,0.17678 0.003,0.0589 0.0329,0.12407 0.009,0.17678 -0.0333,0.0745 -0.13408,0.10224 -0.16739,0.17677 -0.0429,0.0959 0.0834,0.65874 0.0376,0.70711 -0.0395,0.0417 -0.13732,-0.0417 -0.17678,0 -0.0395,0.0417 0.006,0.11785 0.009,0.17678 0.007,0.12295 0.0756,0.81995 0.047,0.88388 -0.0333,0.0745 -0.13407,0.10224 -0.16738,0.17678 -0.0429,0.0959 0.0834,0.65873 0.0376,0.7071 -0.0395,0.0417 -0.13733,-0.0417 -0.17678,0 -0.0837,0.0884 0.11189,0.44195 0.0282,0.53033 -0.0395,0.0417 -0.13732,-0.0417 -0.17678,0 -0.0837,0.0884 0.11189,0.44195 0.0282,0.53033 -0.0395,0.0417 -0.13733,-0.0417 -0.17677,0 -0.0402,0.0425 0.0778,0.66457 0.0376,0.70711 -0.0395,0.0417 -0.13733,-0.0417 -0.17678,0 -0.0837,0.0884 0.11188,0.44194 0.0282,0.53033 -0.0395,0.0417 -0.13733,-0.0417 -0.17678,0 -0.008,0.008 0.0425,0.80054 0.047,0.88389 0.003,0.0589 0.0489,0.13511 0.009,0.17677 -0.0395,0.0417 -0.13733,-0.0417 -0.17677,0 -0.008,0.008 0.0425,0.80054 0.047,0.88389 0.003,0.0589 0.0489,0.13511 0.009,0.17677 -0.0395,0.0417 -0.13732,-0.0417 -0.17678,0 -0.0395,0.0417 0.006,0.11785 0.009,0.17678 0.003,0.0589 0.006,0.11785 0.009,0.17678 0.0438,0.82495 0.0877,1.64991 0.13152,2.47487 0.0407,0.76603 0.0814,1.53206 0.12213,2.2981 0.003,0.0589 0.006,0.11785 0.009,0.17677 0.003,0.0589 -0.0345,0.13511 0.009,0.17678 0.0439,0.0417 0.13289,-0.0417 0.17678,0 0.0654,0.062 -0.0206,0.76178 0.047,0.88388 0.0413,0.0745 0.14495,0.10224 0.18617,0.17678 0.0291,0.0526 0.0524,0.9863 0.0564,1.06066 0.003,0.0589 0.006,0.11785 0.009,0.17678 0.003,0.0589 -0.0345,0.13511 0.009,0.17677 0.0439,0.0417 0.14763,-0.0527 0.17678,0 0.0614,0.11111 -0.0239,0.596 0.0376,0.70711 0.0413,0.0745 0.14494,0.10224 0.18618,0.17678 0.0782,0.14142 -0.05,0.38891 0.0282,0.53033 0.0413,0.0745 0.14494,0.10224 0.18616,0.17677 0.0435,0.0787 0.006,0.62625 0.0376,0.70711 0.0306,0.0791 0.14494,0.10224 0.18618,0.17678 0.0291,0.0527 0.006,0.11785 0.009,0.17677 0.003,0.0589 0.006,0.11785 0.009,0.17678 0.022,0.41457 -0.0461,-0.0833 0.19557,0.35355 0.0594,0.10735 -0.003,0.95332 0.0564,1.06066 0.0413,0.0745 0.14494,0.10225 0.18616,0.17678 0.0615,0.11111 -0.0238,0.596 0.0376,0.70711 0.24167,0.43688 0.17354,-0.061 0.19557,0.35355 0.004,0.0833 0.0385,0.87587 0.047,0.88388 0.24823,0.23571 0.16113,-0.29462 0.18618,0.17678 0.003,0.0589 0.006,0.11785 0.009,0.17678 0.003,0.0589 0.0683,0.17677 0.009,0.17677 -0.0589,0 0.0495,-0.17677 -0.009,-0.17677 -0.0833,0 -0.0948,0.13951 -0.16738,0.17677 -0.0445,0.0229 -0.93536,0 -1.06066,0 -0.0429,0 -0.52432,0.006 -0.53033,0 -0.0439,-0.0417 -0.006,-0.11785 -0.009,-0.17677 -0.23883,-0.0589 -0.47766,-0.11785 -0.7165,-0.17678 z"
           id="path4615"
           inkscape:connector-curvature="0" />
        <path
           style="fill:#008000;fill-rule:evenodd;stroke:#000000;stroke-width:1px;stroke-linecap:butt;stroke-linejoin:miter;stroke-opacity:1"
           d="m 504.01549,579.8381 c 0.1282,-0.44879 0.55687,-0.78675 0.7071,-1.23744 0.0186,-0.0559 -0.0327,-0.12775 0,-0.17678 0.0924,-0.13867 0.27902,-0.20448 0.35356,-0.35355 0.0527,-0.10541 0,-0.2357 0,-0.35355 0.0589,-0.17678 0.0809,-0.37055 0.17677,-0.53033 0.0857,-0.14292 0.26781,-0.21064 0.35356,-0.35356 0.0959,-0.15978 0.11785,-0.35355 0.17677,-0.53033 0.0589,-0.17677 0.11785,-0.35355 0.17678,-0.53033 0.0589,-0.17677 0.14614,-0.34652 0.17678,-0.53033 0.0291,-0.17437 -0.0291,-0.35596 0,-0.53033 0.0306,-0.1838 0.14614,-0.34652 0.17677,-0.53033 0.0291,-0.17437 0,-0.35355 0,-0.53033 0,-0.58925 0,-1.17851 0,-1.76776 0,-0.47141 0,-0.94281 0,-1.41422 0,-0.14803 0.0336,-0.74945 0,-0.88388 -0.0319,-0.12783 -0.13511,-0.22855 -0.17677,-0.35355 -0.0559,-0.16771 0.0429,-0.35884 0,-0.53033 -0.032,-0.12783 -0.13511,-0.22856 -0.17678,-0.35356 -0.0626,-0.18784 0.0626,-0.51926 0,-0.7071 -0.0417,-0.125 -0.13511,-0.22856 -0.17678,-0.35356 -0.0332,-0.0997 0,-0.41417 0,-0.53033 0,-0.4714 0,-0.94281 0,-1.41421 0,-0.53033 0,-1.06066 0,-1.59099 0,-0.11785 0,-0.2357 0,-0.35356 0,-0.11785 -0.0373,-0.24175 0,-0.35355 0.0263,-0.0791 0.13951,-0.10224 0.17678,-0.17678 0.0526,-0.10524 -0.0496,-0.73504 0,-0.88388 0.0833,-0.25 0.28964,-0.45145 0.35355,-0.70711 0.0286,-0.11433 -0.0373,-0.24175 0,-0.35355 0.0263,-0.0791 0.15043,-0.0977 0.17678,-0.17678 0.027,-0.0809 0,-0.78521 0,-0.88388 0,-0.58925 0,-1.17851 0,-1.76777 0,-0.82495 0,-1.64991 0,-2.47487 0,-0.0744 0.0263,-1.00807 0,-1.06066 -0.0373,-0.0745 -0.13951,-0.10224 -0.17678,-0.17678 -0.0263,-0.0527 0,-0.11785 0,-0.17677 0,-0.1253 0.0229,-1.01496 0,-1.06066 -0.0373,-0.0745 -0.13951,-0.10224 -0.17677,-0.17678 -0.0229,-0.0457 0,-0.93536 0,-1.06066 0,-0.15319 0.0341,-0.6047 0,-0.70711 -0.0417,-0.125 -0.14482,-0.22572 -0.17678,-0.35355 -0.0336,-0.13443 0,-0.73585 0,-0.88388 0,-0.11786 0.0286,-0.23922 0,-0.35356 -0.032,-0.12782 -0.13511,-0.22855 -0.17678,-0.35355 -0.0559,-0.16771 0.0429,-0.35883 0,-0.53033 -0.0319,-0.12783 -0.13511,-0.22855 -0.17677,-0.35355 -0.0186,-0.0559 0,-0.11786 0,-0.17678 0,-0.12638 0.0302,-0.97017 0,-1.06066 -0.0264,-0.0791 -0.13951,-0.10224 -0.17678,-0.17678 -0.0269,-0.0538 0,-0.45072 0,-0.53033 0,-0.35355 0,-0.7071 0,-1.06066 0,-0.0589 0,-0.11785 0,-0.17677 0,-0.0589 0.0417,-0.13511 0,-0.17678 -0.0417,-0.0417 -0.13511,0.0417 -0.17678,0 -0.0417,-0.0417 0,-0.11785 0,-0.17678 0,-0.0589 0,-0.11785 0,-0.17677 0,-0.53033 0,-1.06067 0,-1.591 0,-0.0589 0,-0.11785 0,-0.17677 0,-0.0589 -0.0417,-0.13511 0,-0.17678 0.0417,-0.0417 0.11785,0 0.17678,0 0.0589,0 0.11785,0 0.17678,0 0.0589,0 0.12407,-0.0263 0.17677,0 0.0469,0.0235 0.50686,0.4834 0.53033,0.53033 0.0263,0.0527 -0.0263,0.12407 0,0.17678 0.0745,0.14907 0.30085,0.19544 0.35356,0.35355 0.0373,0.11181 -0.0373,0.24175 0,0.35356 0.0263,0.0791 0.1395,0.10224 0.17677,0.17677 0.0263,0.0527 -0.0186,0.12088 0,0.17678 0.0417,0.125 0.10369,0.24392 0.17678,0.35355 0.58629,0.5863 -0.0833,-0.16666 0.17678,0.35356 0.0373,0.0745 0.15042,0.0977 0.17677,0.17677 0.0373,0.11181 -0.0373,0.24175 0,0.35356 0.0264,0.0791 0.13951,0.10224 0.17678,0.17677 0.0263,0.0527 0,0.11785 0,0.17678 0.0589,0.0589 0.13951,0.10224 0.17678,0.17678 0.0236,0.0471 0,0.98068 0,1.06066 0,0.76603 0,1.53206 0,2.29809 0,0.53033 0,1.06066 0,1.59099 0,0.0589 -0.0417,0.13511 0,0.17678 0.0417,0.0417 0.13511,-0.0417 0.17677,0 0.007,0.007 0,0.64219 0,0.70711 0,0.0429 -0.006,0.52464 0,0.53033 0.29463,0.29462 0.17678,-0.64818 0.17678,0.35355 0,0.14231 -0.037,0.59615 0,0.70711 0.0417,0.125 0.13511,0.22855 0.17678,0.35355 0.0348,0.10432 0,0.78511 0,0.88388 0,0.0589 -0.0264,0.12408 0,0.17678 0.0373,0.0745 0.1395,0.10224 0.17677,0.17678 0.0263,0.0527 0,0.11785 0,0.17677 0,0.0589 0,0.11785 0,0.17678 0,0.29463 0,0.58926 0,0.88388 0,1.00174 0,2.00347 0,3.00521 0,1.23743 0,2.47487 0,3.71231 0,0.29463 0,0.58925 0,0.88388 0,0.11785 0,0.2357 0,0.35356 0,0.0589 0.0263,0.12407 0,0.17677 -0.0373,0.0745 -0.13951,0.10224 -0.17677,0.17678 -0.0269,0.0538 0,0.45072 0,0.53033 0,0.35355 0,0.70711 0,1.06066 0,0.76603 0,1.53206 0,2.2981 0,0.4714 0,0.9428 0,1.41421 0,0.0589 0.0417,0.13511 0,0.17678 -0.0417,0.0417 -0.15043,-0.0527 -0.17678,0 -0.0791,0.15811 0,0.35355 0,0.53033 0,1.17851 0,2.35702 0,3.53553 0,0.4714 0,0.94281 0,1.41421 0,0.0589 0,0.11785 0,0.17678 0,0.0589 0.0417,0.13511 0,0.17678 -0.0417,0.0417 -0.13511,-0.0417 -0.17678,0 -0.0884,0.0884 0.0884,0.44194 0,0.53033 -0.0417,0.0417 -0.13511,-0.0417 -0.17677,0 -0.0833,0.0833 0.0833,0.27022 0,0.35355 -0.0417,0.0417 -0.13511,-0.0417 -0.17678,0 -0.0417,0.0417 0.0417,0.13511 0,0.17678 -0.11794,0.11793 -0.23562,-0.11794 -0.35355,0 -0.0417,0.0417 0.0417,0.13511 0,0.17677 -0.0417,0.0417 -0.13511,-0.0417 -0.17678,0 -0.0417,0.0417 0.0417,0.13511 0,0.17678 -0.0417,0.0417 -0.13511,-0.0417 -0.17678,0 -0.0417,0.0417 0.0417,0.13511 0,0.17678 -0.0417,0.0417 -0.13511,-0.0417 -0.17677,0 -0.0833,0.0833 0.0833,0.27022 0,0.35355 -0.0417,0.0417 -0.13511,-0.0417 -0.17678,0 -0.0417,0.0417 0.0417,0.13511 0,0.17678 -0.0417,0.0417 -0.13511,-0.0417 -0.17678,0 -0.0417,0.0417 0.0417,0.13511 0,0.17677 -0.0417,0.0417 -0.13511,-0.0417 -0.17677,0 -0.0417,0.0417 0.0417,0.13511 0,0.17678 -0.11794,0.11794 -0.23562,-0.11794 -0.35356,0 -0.0417,0.0417 0.0417,0.13511 0,0.17678 -0.0417,0.0417 -0.13511,-0.0417 -0.17677,0 -0.0417,0.0417 0.0417,0.13511 0,0.17677 -0.0417,0.0417 -0.13511,-0.0417 -0.17678,0 -0.0417,0.0417 0.0417,0.13511 0,0.17678 -0.0833,0.0833 -0.27022,-0.0833 -0.35355,0 -0.0417,0.0417 0.0417,0.13511 0,0.17678 -0.0833,0.0833 -0.27022,-0.0833 -0.35356,0 -0.0417,0.0417 0,0.11785 0,0.17677 -0.2357,0.11786 -0.4714,0.23571 -0.7071,0.35356 z"
           id="path4629"
           inkscape:connector-curvature="0" />
        <path
           style="fill:#008000;fill-rule:evenodd;stroke:#000000;stroke-width:1px;stroke-linecap:butt;stroke-linejoin:miter;stroke-opacity:1"
           d="m 500.8335,580.89876 c 0,-0.76603 0,-1.53207 0,-2.2981 0,-0.0796 0.0269,-0.47653 0,-0.53033 -0.0373,-0.0745 -0.1395,-0.10224 -0.17677,-0.17678 -0.0263,-0.0527 0,-0.11785 0,-0.17677 0,-0.11785 0.0373,-0.24175 0,-0.35356 -0.0263,-0.079 -0.15043,-0.0977 -0.17678,-0.17677 -0.0559,-0.16771 0.0559,-0.36263 0,-0.53033 -0.0417,-0.125 -0.14482,-0.22573 -0.17678,-0.35356 -0.0429,-0.17149 0.0559,-0.36262 0,-0.53033 -0.0417,-0.125 -0.14482,-0.22572 -0.17677,-0.35355 -0.0572,-0.22866 0.0572,-0.47844 0,-0.70711 -0.032,-0.12782 -0.13511,-0.22855 -0.17678,-0.35355 -0.0186,-0.0559 0,-0.11785 0,-0.17678 0,-0.11785 0,-0.2357 0,-0.35355 0,-0.11785 0.0286,-0.23922 0,-0.35355 -0.032,-0.12783 -0.13511,-0.22856 -0.17678,-0.35356 -0.0186,-0.0559 0,-0.11785 0,-0.17677 0,-0.35356 0,-0.70711 0,-1.06066 0,-0.11785 0.0286,-0.23922 0,-0.35356 -0.0319,-0.12782 -0.14482,-0.22572 -0.17677,-0.35355 -0.0286,-0.11433 0,-0.2357 0,-0.35355 0,-0.35356 0,-0.70711 0,-1.06066 0,-0.94281 0,-1.88562 0,-2.82843 0,-0.94281 0,-1.88562 0,-2.82843 0,-0.29463 0,-0.58925 0,-0.88388 0,-0.11616 -0.0333,-0.43059 0,-0.53033 0.0417,-0.125 0.13511,-0.22856 0.17677,-0.35356 0.0373,-0.1118 -0.0373,-0.24175 0,-0.35355 0.0417,-0.125 0.13511,-0.22855 0.17678,-0.35355 0.053,-0.1591 -0.053,-0.37123 0,-0.53033 0.0417,-0.125 0.13511,-0.22856 0.17678,-0.35356 0.0325,-0.0975 -0.0378,-0.66931 0,-0.7071 0.0417,-0.0417 0.13511,0.0417 0.17677,0 0.0417,-0.0417 0,-0.11785 0,-0.17678 0,-0.16649 -0.0335,-0.78332 0,-0.88388 0.0264,-0.0791 0.13951,-0.10224 0.17678,-0.17678 0.0707,-0.14142 -0.0707,-0.38891 0,-0.53033 0.0373,-0.0745 0.15043,-0.0977 0.17678,-0.17678 0.0559,-0.1677 0,-0.35355 0,-0.53033 0,-0.41457 -0.0417,0.0833 0.17677,-0.35355 0.0526,-0.10525 -0.0496,-0.73505 0,-0.88388 0.0417,-0.125 0.13511,-0.22856 0.17678,-0.35356 0.0332,-0.0997 0,-0.41417 0,-0.53033 0,-0.29462 0,-0.58925 0,-0.88388 0,-1.06066 0,-2.12132 0,-3.18198 0,-1.00174 0,-2.00347 0,-3.0052 0,-0.0429 -0.006,-0.52465 0,-0.53033 0.0417,-0.0417 0.13511,0.0417 0.17678,0 0.0417,-0.0417 0,-0.11786 0,-0.17678 0,-0.17678 0,-0.35355 0,-0.53033 0,-0.64818 0,-1.29636 0,-1.94454 0,-0.0924 0.0232,-0.66063 0,-0.70711 -0.0373,-0.0745 -0.13951,-0.10224 -0.17678,-0.17678 -0.0707,-0.14142 0.0707,-0.38891 0,-0.53033 -0.0373,-0.0745 -0.13951,-0.10224 -0.17678,-0.17678 -0.0262,-0.0524 0,-0.88967 0,-1.06066 0,-0.0589 0.0417,-0.13511 0,-0.17677 -0.0417,-0.0417 -0.13511,0.0417 -0.17677,0 -0.0417,-0.0417 0,-0.11785 0,-0.17678 0,-0.0589 -0.0417,-0.13511 0,-0.17678 0.006,-0.006 0.48746,0 0.53033,0 0.39938,0 -0.0791,-0.0263 0.53033,0.17678 0.0559,0.0186 0.12407,-0.0263 0.17677,0 0.0745,0.0373 0.10225,0.13951 0.17678,0.17678 0.0527,0.0263 0.13511,-0.0417 0.17678,0 0.0884,0.0884 -0.0884,0.44194 0,0.53033 0.0417,0.0417 0.13511,-0.0417 0.17677,0 0.007,0.007 0,0.64219 0,0.7071 0,0.11786 0,0.23571 0,0.35356 0,0.0589 -0.0186,0.12087 0,0.17678 0.0417,0.125 0.14482,0.22572 0.17678,0.35355 0.0286,0.11433 0,0.2357 0,0.35355 0,0.29463 0,0.58926 0,0.88389 0,0.7071 0,1.41421 0,2.12132 0,2.29809 0,4.59619 0,6.89429 0,0.7071 0,1.41421 0,2.12132 0,0.0944 -0.0253,0.83329 0,0.88388 0.0373,0.0745 0.13951,0.10224 0.17678,0.17678 0.0232,0.0465 0,0.61466 0,0.7071 0,0.53033 0,1.06066 0,1.59099 0,0.0796 -0.0269,0.47654 0,0.53033 0.0373,0.0745 0.13951,0.10225 0.17678,0.17678 0.0269,0.0537 0,0.58504 0,0.70711 0,0.53033 0,1.06066 0,1.59099 0,1.82669 0,3.65338 0,5.48008 0,0.53033 0,1.06066 0,1.59099 0,0.0589 0,0.11785 0,0.17677 0,0.0589 -0.0417,0.13511 0,0.17678 0.0417,0.0417 0.13511,-0.0417 0.17677,0 0.0417,0.0417 0,0.11785 0,0.17678 0,0.0589 0,0.11785 0,0.17677 0,0.53033 0,1.06066 0,1.59099 0,1.35529 0,2.71058 0,4.06587 0,0.0649 0.007,0.69999 0,0.7071 -0.0417,0.0417 -0.13511,-0.0417 -0.17677,0 -0.0361,0.0361 0.035,0.46024 0,0.53033 -0.0373,0.0745 -0.13951,0.10225 -0.17678,0.17678 -0.0707,0.14142 0.0707,0.38891 0,0.53033 -0.21845,0.43689 -0.17678,-0.061 -0.17678,0.35355 0,0.29463 0,0.58926 0,0.88389 0,0.0589 0.0417,0.13511 0,0.17677 -0.0833,0.0833 -0.27022,-0.0833 -0.35355,0 -0.0417,0.0417 0.0417,0.13511 0,0.17678 -0.0833,0.0833 -0.27022,-0.0833 -0.35356,0 -0.0417,0.0417 0.0417,0.13511 0,0.17678 -0.0833,0.0833 -0.25249,-0.0606 -0.35355,0 -0.25264,0.15158 -0.4714,0.35355 -0.70711,0.53033 z"
           id="path4617"
           inkscape:connector-curvature="0" />
        <path
           style="fill:#008000;fill-rule:evenodd;stroke:#000000;stroke-width:1px;stroke-linecap:butt;stroke-linejoin:miter;stroke-opacity:1"
           d="m 505.4297,564.98886 c 0.17678,-0.29463 0.35355,-0.58926 0.53033,-0.88389 0,-0.0589 -0.0264,-0.12407 0,-0.17678 0.0373,-0.0745 0.15042,-0.0977 0.17678,-0.17677 0.0373,-0.11181 0,-0.2357 0,-0.35356 0,-0.11971 -0.0269,-1.1569 0,-1.23743 0.0263,-0.0791 0.1395,-0.10224 0.17677,-0.17678 0.0527,-0.10541 -0.0373,-0.24175 0,-0.35355 0.0417,-0.125 0.13511,-0.22856 0.17678,-0.35356 0.0559,-0.1677 -0.0559,-0.36262 0,-0.53033 0.0263,-0.0791 0.13951,-0.10224 0.17678,-0.17677 0.0527,-0.10541 -0.0373,-0.24175 0,-0.35356 0.0417,-0.125 0.13511,-0.22855 0.17677,-0.35355 0.0405,-0.12159 -0.0521,-0.42603 0,-0.53033 0.0373,-0.0745 0.13951,-0.10224 0.17678,-0.17678 0.0527,-0.10541 -0.0527,-0.24814 0,-0.35355 0.0373,-0.0745 0.13951,-0.10224 0.17678,-0.17678 0.0527,-0.10541 -0.0833,-0.27022 0,-0.35355 0.0417,-0.0417 0.13511,0.0417 0.17677,0 0.0833,-0.0833 -0.0527,-0.24814 0,-0.35355 0.0373,-0.0745 0.13951,-0.10224 0.17678,-0.17678 0.0263,-0.0527 -0.0417,-0.13511 0,-0.17678 0.0417,-0.0417 0.13511,0.0417 0.17678,0 0.0417,-0.0417 -0.0264,-0.12407 0,-0.17677 0.0373,-0.0745 0.1395,-0.10224 0.17677,-0.17678 0.0264,-0.0527 -0.0263,-0.12407 0,-0.17678 0.0745,-0.14907 0.27902,-0.20448 0.35356,-0.35355 0.0263,-0.0527 -0.0264,-0.12407 0,-0.17678 0.0745,-0.14907 0.27901,-0.20448 0.35355,-0.35355 0.0264,-0.0527 -0.0263,-0.12407 0,-0.17678 0.0745,-0.14907 0.27902,-0.20448 0.35355,-0.35355 0.0264,-0.0527 -0.0417,-0.13511 0,-0.17678 0.0417,-0.0417 0.12407,0.0264 0.17678,0 0.0745,-0.0373 0.11785,-0.11785 0.17678,-0.17677 0.0589,-0.0589 0.11785,-0.11785 0.17677,-0.17678 0.23571,-0.2357 0.47141,-0.4714 0.70711,-0.70711 0.0589,-0.0589 0.10224,-0.13951 0.17678,-0.17677 0.0527,-0.0264 0.13511,0.0417 0.17677,0 0.0417,-0.0417 -0.0417,-0.13511 0,-0.17678 0.0417,-0.0417 0.13511,0.0417 0.17678,0 0.0417,-0.0417 -0.0417,-0.13511 0,-0.17678 0.0417,-0.0417 0.13511,0.0417 0.17678,0 0.0417,-0.0417 -0.0264,-0.12407 0,-0.17677 0.0373,-0.0745 0.13951,-0.10224 0.17677,-0.17678 0.0264,-0.0527 -0.0417,-0.13511 0,-0.17678 0.0417,-0.0417 0.13511,0.0417 0.17678,0 0.11794,-0.11793 -0.11794,-0.23561 0,-0.35355 0.0417,-0.0417 0.13511,0.0417 0.17678,0 0.0884,-0.0884 -0.0884,-0.44194 0,-0.53033 0.0417,-0.0417 0.13511,0.0417 0.17677,0 0.0425,-0.0425 -0.0425,-0.66457 0,-0.70711 0.0417,-0.0417 0.13511,0.0417 0.17678,0 0.0833,-0.0833 -0.0527,-0.24814 0,-0.35355 0.0373,-0.0745 0.13951,-0.10224 0.17678,-0.17678 0.0527,-0.10541 -0.0527,-0.24814 0,-0.35355 0.0373,-0.0745 0.13951,-0.10224 0.17677,-0.17678 0.0264,-0.0527 -0.0417,-0.13511 0,-0.17677 0.0417,-0.0417 0.13511,0.0417 0.17678,0 0.0417,-0.0417 -0.0417,-0.13511 0,-0.17678 0.0417,-0.0417 0.13511,0.0417 0.17678,0 0.0417,-0.0417 -0.0264,-0.12407 0,-0.17678 0.0373,-0.0745 0.13951,-0.10224 0.17677,-0.17677 0.0264,-0.0527 -0.0417,-0.13511 0,-0.17678 0.0417,-0.0417 0.13511,0.0417 0.17678,0 0.0417,-0.0417 -0.0589,-0.17678 0,-0.17678 0.0589,0 0.0417,0.13511 0,0.17678 -0.0417,0.0417 -0.13511,-0.0417 -0.17678,0 -0.36575,0.36576 0.55893,-0.0143 -0.17677,0.35355 -0.24384,0.12192 -0.15813,-0.21408 -0.35356,0.17678 -0.0263,0.0527 0.0264,0.12407 0,0.17678 -0.40452,0.80903 0.0733,-0.75014 -0.35355,0.53033 -0.0186,0.0559 0.0417,0.13511 0,0.17677 -0.0417,0.0417 -0.13511,-0.0417 -0.17678,0 -0.0417,0.0417 0.0264,0.12407 0,0.17678 -0.0373,0.0745 -0.13951,0.10224 -0.17677,0.17678 -0.0264,0.0527 0.0263,0.12407 0,0.17677 -0.0373,0.0745 -0.13951,0.10224 -0.17678,0.17678 -0.0527,0.10541 0.0527,0.24814 0,0.35355 -0.0373,0.0745 -0.13951,0.10224 -0.17678,0.17678 -0.0263,0.0527 0.0264,0.12407 0,0.17678 -0.0373,0.0745 -0.13951,0.10224 -0.17677,0.17677 -0.0269,0.0538 0,0.45072 0,0.53033 0,1.23744 0,2.47488 0,3.71231 0,0.0429 0.006,0.52465 0,0.53033 -0.0417,0.0417 -0.13511,-0.0417 -0.17678,0 -0.0833,0.0833 0.0833,0.27022 0,0.35356 -0.0417,0.0417 -0.13511,-0.0417 -0.17678,0 -0.0833,0.0833 0.0833,0.27022 0,0.35355 -0.0417,0.0417 -0.13511,-0.0417 -0.17677,0 -0.0833,0.0833 0.0833,0.27022 0,0.35355 -0.0417,0.0417 -0.13511,-0.0417 -0.17678,0 -0.0833,0.0833 0.0833,0.27022 0,0.35356 -0.0417,0.0417 -0.13511,-0.0417 -0.17678,0 -0.0417,0.0417 0.0417,0.13511 0,0.17677 -0.0417,0.0417 -0.13511,-0.0417 -0.17677,0 -0.0833,0.0833 0.0833,0.27022 0,0.35356 -0.0417,0.0417 -0.13511,-0.0417 -0.17678,0 -0.0833,0.0833 0.0833,0.27022 0,0.35355 -0.0417,0.0417 -0.13511,-0.0417 -0.17678,0 -0.0833,0.0833 0.0833,0.27022 0,0.35355 -0.0417,0.0417 -0.13511,-0.0417 -0.17677,0 -0.0417,0.0417 0.0417,0.13511 0,0.17678 -0.0417,0.0417 -0.13511,-0.0417 -0.17678,0 -0.0417,0.0417 0.0263,0.12407 0,0.17678 -0.0373,0.0745 -0.13951,0.10224 -0.17678,0.17677 -0.0264,0.0527 0.0417,0.13511 0,0.17678 -0.0417,0.0417 -0.13511,-0.0417 -0.17677,0 -0.0833,0.0833 0.0833,0.27022 0,0.35355 -0.0417,0.0417 -0.13511,-0.0417 -0.17678,0 -0.0417,0.0417 0.0417,0.13511 0,0.17678 -0.0417,0.0417 -0.13511,-0.0417 -0.17678,0 -0.0417,0.0417 0.0417,0.13511 0,0.17678 -0.0417,0.0417 -0.13511,-0.0417 -0.17677,0 -0.0417,0.0417 0.0417,0.13511 0,0.17677 -0.0417,0.0417 -0.13511,-0.0417 -0.17678,0 -0.0833,0.0833 0.0833,0.27022 0,0.35356 -0.0417,0.0417 -0.13511,-0.0417 -0.17678,0 -0.0417,0.0417 0.0417,0.13511 0,0.17677 -0.0417,0.0417 -0.13511,-0.0417 -0.17677,0 -0.0417,0.0417 0.0417,0.13511 0,0.17678 -0.0417,0.0417 -0.13511,-0.0417 -0.17678,0 -0.0417,0.0417 0.0417,0.13511 0,0.17678 -0.0417,0.0417 -0.13511,-0.0417 -0.17678,0 -0.0417,0.0417 0.0417,0.13511 0,0.17677 -0.0417,0.0417 -0.13511,-0.0417 -0.17677,0 -0.0417,0.0417 0.0417,0.13511 0,0.17678 -0.0417,0.0417 -0.13511,-0.0417 -0.17678,0 -0.0417,0.0417 0.0417,0.13511 0,0.17678 -0.0417,0.0417 -0.13511,-0.0417 -0.17678,0 -0.0417,0.0417 0.0417,0.13511 0,0.17677 -0.0417,0.0417 -0.13511,-0.0417 -0.17677,0 -0.0417,0.0417 0.0417,0.13511 0,0.17678 -0.0417,0.0417 -0.13511,-0.0417 -0.17678,0 -0.0417,0.0417 0.0417,0.13511 0,0.17678 -0.0417,0.0417 -0.13511,-0.0417 -0.17678,0 -0.0417,0.0417 0.0417,0.13511 0,0.17677 -0.0417,0.0417 -0.13511,-0.0417 -0.17677,0 -0.0833,0.0833 0.0833,0.27023 0,0.35356 -0.0417,0.0417 -0.11786,0 -0.17678,0 -0.17678,0.2357 -0.35355,0.4714 -0.53033,0.70711 z"
           id="path4619"
           inkscape:connector-curvature="0" />
        <path
           style="fill:#008000;fill-rule:evenodd;stroke:#000000;stroke-width:1px;stroke-linecap:butt;stroke-linejoin:miter;stroke-opacity:1"
           d="m 506.13681,571.52959 c -0.3594,-0.67773 0.58779,-0.52594 0.7071,-0.88388 0.0373,-0.1118 -0.0373,-0.24175 0,-0.35355 0.0527,-0.15812 0.26111,-0.21488 0.35356,-0.35356 0.0731,-0.10963 0.10368,-0.24392 0.17677,-0.35355 0.0462,-0.0693 0.13951,-0.10224 0.17678,-0.17678 0.0263,-0.0527 -0.0263,-0.12407 0,-0.17677 0.0373,-0.0745 0.13951,-0.10225 0.17678,-0.17678 0.0263,-0.0527 -0.0264,-0.12407 0,-0.17678 0.0373,-0.0745 0.1395,-0.10224 0.17677,-0.17677 0.0527,-0.10541 -0.0527,-0.24815 0,-0.35356 0.0373,-0.0745 0.13951,-0.10224 0.17678,-0.17677 0.0527,-0.10541 -0.0527,-0.24815 0,-0.35356 0.0373,-0.0745 0.13951,-0.10224 0.17678,-0.17677 0.0263,-0.0527 -0.0264,-0.12408 0,-0.17678 0.0745,-0.14907 0.27901,-0.20448 0.35355,-0.35355 0.0264,-0.0527 -0.0263,-0.12408 0,-0.17678 0.0745,-0.14907 0.27902,-0.20448 0.35355,-0.35355 0.0264,-0.0527 -0.0264,-0.12408 0,-0.17678 0.0373,-0.0745 0.13951,-0.10224 0.17678,-0.17678 0.0263,-0.0527 -0.0264,-0.12407 0,-0.17677 0.40452,-0.80904 -0.0733,0.75013 0.35355,-0.53033 0.0186,-0.0559 -0.0264,-0.12408 0,-0.17678 0.0373,-0.0745 0.13055,-0.10744 0.17678,-0.17678 0.0731,-0.10963 0.10369,-0.24392 0.17678,-0.35355 0.0462,-0.0693 0.13951,-0.10224 0.17677,-0.17678 0.0264,-0.0527 0,-0.11785 0,-0.17677 0.0589,-0.11786 0.10369,-0.24393 0.17678,-0.35356 0.17341,-0.26012 0.53369,-0.44698 0.70711,-0.70711 0.42809,-0.64213 -0.0518,-0.12501 0.35355,-0.53033 0.0796,-0.0796 0.50343,-0.44963 0.53033,-0.53033 0.0373,-0.1118 -0.0373,-0.24175 0,-0.35355 0.0264,-0.0791 0.11785,-0.11785 0.17678,-0.17678 0.0589,-0.0589 0.11785,-0.11785 0.17677,-0.17677 0.13891,-0.13891 0.82759,-0.77128 0.88389,-0.88389 0.0264,-0.0527 -0.0264,-0.12407 0,-0.17677 0.0373,-0.0745 0.13951,-0.10224 0.17677,-0.17678 0.0264,-0.0527 0,-0.11785 0,-0.17678 0.0589,-0.0589 0.13951,-0.10224 0.17678,-0.17677 0.0263,-0.0527 -0.0417,-0.13511 0,-0.17678 0.0417,-0.0417 0.13511,0.0417 0.17678,0 0.0417,-0.0417 -0.0264,-0.12407 0,-0.17678 0.36785,-0.7357 -0.0122,0.18898 0.35355,-0.17677 0.0833,-0.0833 -0.0833,-0.27022 0,-0.35356 0.0417,-0.0417 0.13511,0.0417 0.17678,0 0.0417,-0.0417 -0.0417,-0.13511 0,-0.17677 0.0833,-0.0833 0.24814,0.0527 0.35355,0 0.0745,-0.0373 0.10224,-0.13951 0.17678,-0.17678 0.0527,-0.0263 0.11785,0 0.17677,0 0.11785,-0.0589 0.24392,-0.10369 0.35356,-0.17678 0.0693,-0.0462 0.10224,-0.1395 0.17677,-0.17677 0.0527,-0.0263 0.13511,0.0417 0.17678,0 0.0417,-0.0417 -0.0417,-0.13511 0,-0.17678 0.0417,-0.0417 0.11785,0 0.17678,0 0.0589,0 0.13511,-0.0417 0.17677,0 0.0417,0.0417 0,0.11785 0,0.17678 0,0.12295 0.032,0.81995 0,0.88388 -0.0745,0.14907 -0.30084,0.19544 -0.35355,0.35355 0,0.80474 0.0833,0.0101 -0.17678,0.53033 -0.0264,0.0527 0.0417,0.13511 0,0.17678 -0.0417,0.0417 -0.13511,-0.0417 -0.17677,0 -0.0833,0.0833 0.0527,0.24815 0,0.35355 -0.0373,0.0745 -0.13951,0.10225 -0.17678,0.17678 -0.0263,0.0527 0.0417,0.13511 0,0.17678 -0.0417,0.0417 -0.13511,-0.0417 -0.17678,0 -0.0417,0.0417 0.0417,0.13511 0,0.17677 -0.0417,0.0417 -0.13511,-0.0417 -0.17677,0 -0.0417,0.0417 0.0264,0.12408 0,0.17678 -0.0745,0.14907 -0.27902,0.20448 -0.35356,0.35355 0,0.47141 0.0589,-0.0589 -0.17677,0.17678 -0.0417,0.0417 0.0417,0.13511 0,0.17678 -0.36576,0.36576 0.0143,-0.55893 -0.35356,0.17677 -0.0263,0.0527 0.0417,0.13511 0,0.17678 -0.0417,0.0417 -0.13511,-0.0417 -0.17677,0 -0.0417,0.0417 0.0417,0.13511 0,0.17678 -0.0417,0.0417 -0.13511,-0.0417 -0.17678,0 -0.0417,0.0417 0.0417,0.13511 0,0.17677 -0.0417,0.0417 -0.13511,-0.0417 -0.17678,0 -0.0417,0.0417 0.0417,0.13511 0,0.17678 -0.0417,0.0417 -0.12407,-0.0263 -0.17677,0 -0.39087,0.19543 -0.0549,0.10972 -0.17678,0.35355 -0.16272,0.32545 -0.36761,0.0281 -0.53033,0.35356 -0.0263,0.0527 0.0264,0.12407 0,0.17677 -0.40452,0.80904 0.0733,-0.75013 -0.35355,0.53034 -0.0186,0.0559 0.0417,0.13511 0,0.17677 -0.0417,0.0417 -0.13511,-0.0417 -0.17678,0 -0.0833,0.0833 0.0833,0.27022 0,0.35356 -0.0417,0.0417 -0.13511,-0.0417 -0.17678,0 -0.0417,0.0417 0.0417,0.13511 0,0.17677 -0.0417,0.0417 -0.13511,-0.0417 -0.17677,0 -0.0833,0.0833 0.0833,0.27022 0,0.35356 -0.0417,0.0417 -0.13511,-0.0417 -0.17678,0 -0.0417,0.0417 0.0417,0.13511 0,0.17677 -0.0417,0.0417 -0.13511,-0.0417 -0.17678,0 -0.0833,0.0833 0.0833,0.27022 0,0.35356 -0.0417,0.0417 -0.13511,-0.0417 -0.17677,0 -0.0833,0.0833 0.0833,0.27022 0,0.35355 -0.0417,0.0417 -0.13511,-0.0417 -0.17678,0 -0.0417,0.0417 0.0417,0.13511 0,0.17678 -0.0417,0.0417 -0.13511,-0.0417 -0.17678,0 -0.0417,0.0417 0.0417,0.13511 0,0.17677 -0.0417,0.0417 -0.13511,-0.0417 -0.17677,0 -0.0833,0.0833 0.0833,0.27022 0,0.35356 -0.0417,0.0417 -0.13511,-0.0417 -0.17678,0 -0.0417,0.0417 0.0417,0.13511 0,0.17677 -0.0417,0.0417 -0.13511,-0.0417 -0.17678,0 -0.0417,0.0417 0.0417,0.13511 0,0.17678 -0.0417,0.0417 -0.13511,-0.0417 -0.17677,0 -0.0417,0.0417 0.0417,0.13511 0,0.17678 -0.0417,0.0417 -0.13511,-0.0417 -0.17678,0 -0.0417,0.0417 0.0417,0.13511 0,0.17677 -0.0417,0.0417 -0.13511,-0.0417 -0.17678,0 -0.0833,0.0833 0.0833,0.27022 0,0.35356 -0.0417,0.0417 -0.13511,-0.0417 -0.17677,0 -0.0417,0.0417 0.0417,0.13511 0,0.17677 -0.0417,0.0417 -0.13511,-0.0417 -0.17678,0 -0.0417,0.0417 0.0417,0.13511 0,0.17678 -0.0417,0.0417 -0.13511,-0.0417 -0.17678,0 -0.0417,0.0417 0.0417,0.13511 0,0.17678 -0.0417,0.0417 -0.13511,-0.0417 -0.17677,0 -0.11794,0.11793 0.11793,0.23561 0,0.35355 -0.0417,0.0417 -0.13511,-0.0417 -0.17678,0 -0.0417,0.0417 0.0417,0.13511 0,0.17678 -0.0417,0.0417 -0.13511,-0.0417 -0.17678,0 -0.0833,0.0833 0.0833,0.27022 0,0.35355 -0.0417,0.0417 -0.13511,-0.0417 -0.17677,0 -0.0417,0.0417 0.0417,0.13511 0,0.17678 -0.0417,0.0417 -0.13511,-0.0417 -0.17678,0 -0.0417,0.0417 0.0417,0.13511 0,0.17677 -0.0833,0.0833 -0.27022,-0.0833 -0.35355,0 -0.0417,0.0417 0.0417,0.13511 0,0.17678 -0.0417,0.0417 -0.13511,-0.0417 -0.17678,0 -0.0417,0.0417 0.0417,0.13511 0,0.17678 -0.0417,0.0417 -0.13511,-0.0417 -0.17678,0 -0.0417,0.0417 0.0417,0.13511 0,0.17677 -0.11793,0.11794 -0.23561,-0.11793 -0.35355,0 -0.0417,0.0417 0.0417,0.13511 0,0.17678 -0.0417,0.0417 -0.13511,-0.0417 -0.17678,0 -0.0417,0.0417 0.0417,0.13511 0,0.17678 -0.0417,0.0417 -0.11785,0 -0.17677,0 -0.17678,0.2357 -0.35356,0.4714 -0.53033,0.7071 z"
           id="path4621"
           inkscape:connector-curvature="0" />
        <path
           style="fill:#008000;fill-rule:evenodd;stroke:#000000;stroke-width:1px;stroke-linecap:butt;stroke-linejoin:miter;stroke-opacity:1"
           d="m 507.55102,575.41868 c 0.17678,-0.2357 0.35355,-0.4714 0.53033,-0.70711 0.0589,-0.11785 0.10369,-0.24392 0.17678,-0.35355 0.0462,-0.0693 0.13055,-0.10744 0.17677,-0.17678 0.0731,-0.10963 0.10369,-0.24392 0.17678,-0.35355 0.0462,-0.0693 0.13055,-0.10744 0.17678,-0.17678 0.33489,0.0201 0.11785,-0.41248 0.17677,-0.53033 0.0373,-0.0745 0.13951,-0.10224 0.17678,-0.17677 0.0263,-0.0527 -0.0264,-0.12408 0,-0.17678 0.0472,-0.0944 0.43726,-0.43726 0.53033,-0.53033 0.41457,-0.41457 -0.0417,0.125 0.17678,-0.53033 0.0399,-0.1197 0.46281,-0.39529 0.53033,-0.53033 0.0263,-0.0527 -0.0264,-0.12407 0,-0.17678 0.0169,-0.0338 0.67326,-0.69018 0.7071,-0.7071 0.0527,-0.0264 0.12408,0.0263 0.17678,0 0.14907,-0.0745 0.21488,-0.26111 0.35355,-0.35356 0.10964,-0.0731 0.24392,-0.10369 0.35356,-0.17677 0.13867,-0.0924 0.2357,-0.23571 0.35355,-0.35356 0.17678,-0.17677 0.35355,-0.35355 0.53033,-0.53033 0.0931,-0.0931 0.48312,-0.43591 0.53033,-0.53033 0.0263,-0.0527 -0.0264,-0.12407 0,-0.17677 0.0373,-0.0745 0.11785,-0.11786 0.17678,-0.17678 0.0589,-0.0589 0.10224,-0.13951 0.17677,-0.17678 0.0527,-0.0263 0.12408,0.0263 0.17678,0 0.7357,-0.36785 -0.18898,0.0122 0.17678,-0.35355 0.0417,-0.0417 0.12407,0.0263 0.17677,0 0.0745,-0.0373 0.10224,-0.13951 0.17678,-0.17678 0.0527,-0.0264 0.13511,0.0417 0.17678,0 0,-0.4714 -0.0589,0.0589 0.17677,-0.17677 0.0417,-0.0417 -0.0417,-0.13511 0,-0.17678 0.0833,-0.0833 0.27022,0.0833 0.35356,0 0.0417,-0.0417 -0.0417,-0.13511 0,-0.17678 0.0833,-0.0833 0.27022,0.0833 0.35355,0 0.0417,-0.0417 -0.0417,-0.13511 0,-0.17677 0.0417,-0.0417 0.17678,-0.0589 0.17678,0 0,0.36785 -0.24791,0.0711 -0.35356,0.17677 -0.0417,0.0417 0.0264,0.12407 0,0.17678 -0.0373,0.0745 -0.11785,0.11785 -0.17677,0.17678 -0.0589,0.0589 -0.11785,0.11785 -0.17678,0.17677 -0.0931,0.0931 -0.43592,0.48313 -0.53033,0.53033 -0.0527,0.0263 -0.13511,-0.0417 -0.17678,0 -0.21531,0.21531 -0.0828,0.39496 -0.35355,0.53033 -0.0527,0.0263 -0.13511,-0.0417 -0.17678,0 -0.0417,0.0417 0.0264,0.12407 0,0.17678 -0.0472,0.0944 -0.43726,0.43726 -0.53033,0.53033 -0.0589,0.0589 -0.11785,0.11785 -0.17677,0.17678 -0.0589,0.0589 -0.10224,0.1395 -0.17678,0.17677 -0.0527,0.0263 -0.13511,-0.0417 -0.17678,0 -0.0417,0.0417 0.0264,0.12407 0,0.17678 -0.0373,0.0745 -0.13951,0.10224 -0.17677,0.17678 -0.0527,0.10541 0.0833,0.27022 0,0.35355 -0.0417,0.0417 -0.13511,-0.0417 -0.17678,0 -0.11794,0.11794 0.11794,0.23562 0,0.35355 -0.0417,0.0417 -0.13511,-0.0417 -0.17678,0 -0.0884,0.0884 0.0884,0.44194 0,0.53033 -0.0417,0.0417 -0.13511,-0.0417 -0.17677,0 -0.0417,0.0417 0,0.11785 0,0.17678 0,0.29463 0,0.58926 0,0.88388 0,0.0589 0.0417,0.13511 0,0.17678 -0.0417,0.0417 -0.13511,-0.0417 -0.17678,0 -0.0884,0.0884 0.0884,0.44194 0,0.53033 -0.0417,0.0417 -0.13511,-0.0417 -0.17678,0 -0.0417,0.0417 0.0417,0.13511 0,0.17678 -0.0417,0.0417 -0.13511,-0.0417 -0.17677,0 -0.0417,0.0417 0.0417,0.13511 0,0.17677 -0.0417,0.0417 -0.13511,-0.0417 -0.17678,0 -0.0417,0.0417 0.0417,0.13511 0,0.17678 -0.0417,0.0417 -0.13511,-0.0417 -0.17678,0 -0.0417,0.0417 0.0417,0.13511 0,0.17678 -0.0833,0.0833 -0.27022,-0.0833 -0.35355,0 -0.0417,0.0417 0.0417,0.13511 0,0.17677 -0.0833,0.0833 -0.27022,-0.0833 -0.35355,0 -0.0417,0.0417 0.0417,0.13511 0,0.17678 -0.11794,0.11794 -0.23562,-0.11794 -0.35356,0 -0.0417,0.0417 0.0417,0.13511 0,0.17678 -0.0833,0.0833 -0.27022,-0.0833 -0.35355,0 -0.0417,0.0417 0.0417,0.13511 0,0.17677 -0.0417,0.0417 -0.13511,-0.0417 -0.17678,0 -0.0417,0.0417 0.0417,0.13511 0,0.17678 -0.0833,0.0833 -0.27022,-0.0833 -0.35355,0 -0.0417,0.0417 0.0417,0.13511 0,0.17678 -0.0833,0.0833 -0.27022,-0.0833 -0.35355,0 -0.0417,0.0417 0.0417,0.13511 0,0.17677 -0.0417,0.0417 -0.13511,-0.0417 -0.17678,0 -0.0417,0.0417 0.0417,0.13511 0,0.17678 -0.0417,0.0417 -0.12407,-0.0263 -0.17678,0 -0.0745,0.0373 -0.10532,0.1339 -0.17677,0.17678 -0.22597,0.13558 -0.47141,0.2357 -0.70711,0.35355 z"
           id="path4623"
           inkscape:connector-curvature="0" />
        <path
           style="fill:#008000;fill-rule:evenodd;stroke:#000000;stroke-width:1px;stroke-linecap:butt;stroke-linejoin:miter;stroke-opacity:1"
           d="m 505.96003,579.30777 c 0.47734,-0.013 0.70783,-0.64867 1.06066,-0.88389 0.10963,-0.0731 0.24392,-0.10368 0.35355,-0.17677 0.13868,-0.0924 0.19544,-0.30085 0.35356,-0.35356 0.1118,-0.0373 0.24175,0.0373 0.35355,0 0.10801,-0.036 0.55811,-0.60778 0.70711,-0.7071 1.28173,-0.64087 -0.27951,0.18634 0.53033,-0.35356 0.10963,-0.0731 0.24814,-0.0977 0.35355,-0.17677 0.2,-0.15 0.32232,-0.39166 0.53033,-0.53033 0.10963,-0.0731 0.24392,-0.10369 0.35355,-0.17678 0.0693,-0.0462 0.0977,-0.15042 0.17678,-0.17678 0.1118,-0.0373 0.24175,0.0373 0.35355,0 0.15812,-0.0527 0.20449,-0.27901 0.35356,-0.35355 0.0527,-0.0263 0.13511,0.0417 0.17677,0 0.36576,-0.36576 -0.55892,0.0143 0.17678,-0.35355 0.0527,-0.0264 0.12407,0.0264 0.17678,0 0.1126,-0.0563 0.74497,-0.74498 0.88388,-0.88389 0.0589,-0.0589 0.10224,-0.13951 0.17678,-0.17677 0.4714,0 -0.0589,0.0589 0.17677,-0.17678 0.0417,-0.0417 0.13511,0.0417 0.17678,0 0.0417,-0.0417 -0.0417,-0.13511 0,-0.17678 0.0417,-0.0417 0.13511,0.0417 0.17678,0 0.0417,-0.0417 -0.0417,-0.13511 0,-0.17677 0.0417,-0.0417 0.13511,-0.0417 0.17677,0 0.006,0.006 0,0.48745 0,0.53033 0,0.4714 0.0589,-0.0589 -0.17677,0.17677 -0.0833,0.0833 0.0833,0.27022 0,0.35356 -0.0417,0.0417 -0.13511,-0.0417 -0.17678,0 -0.0417,0.0417 0.0263,0.12407 0,0.17677 -0.0745,0.14907 -0.27902,0.20449 -0.35355,0.35356 -0.0264,0.0527 0.0264,0.12407 0,0.17677 -0.0373,0.0745 -0.13951,0.10224 -0.17678,0.17678 -0.0263,0.0527 0.0264,0.12407 0,0.17678 -0.0373,0.0745 -0.13951,0.10224 -0.17678,0.17677 -0.0264,0.0527 0.0417,0.13511 0,0.17678 -0.0417,0.0417 -0.13511,-0.0417 -0.17677,0 -0.0833,0.0833 0.0833,0.27022 0,0.35355 -0.0417,0.0417 -0.13511,-0.0417 -0.17678,0 -0.0833,0.0833 0.0833,0.27022 0,0.35356 -0.0417,0.0417 -0.13511,-0.0417 -0.17678,0 -0.0417,0.0417 0.0417,0.13511 0,0.17677 -0.0417,0.0417 -0.13511,-0.0417 -0.17677,0 -0.0417,0.0417 0.0417,0.13511 0,0.17678 -0.0417,0.0417 -0.13511,-0.0417 -0.17678,0 -0.0417,0.0417 0.0417,0.13511 0,0.17678 -0.11794,0.11793 -0.23562,-0.11794 -0.35355,0 -0.0417,0.0417 0.0417,0.13511 0,0.17677 -0.0833,0.0833 -0.27022,-0.0833 -0.35356,0 -0.0417,0.0417 0.0417,0.13511 0,0.17678 -0.0833,0.0833 -0.24814,-0.0527 -0.35355,0 -0.0745,0.0373 -0.10224,0.13951 -0.17678,0.17678 -0.1221,0.0611 -0.82183,-0.062 -0.88388,0 -0.0417,0.0417 0.0417,0.13511 0,0.17677 -0.008,0.008 -0.80053,0 -0.88388,0 -0.0589,0 -0.13511,-0.0417 -0.17678,0 -0.0417,0.0417 0.0417,0.13511 0,0.17678 -0.0425,0.0425 -0.66457,-0.0425 -0.70711,0 -0.0417,0.0417 0.0417,0.13511 0,0.17678 -0.0884,0.0884 -0.44194,-0.0884 -0.53033,0 -0.0417,0.0417 0.0417,0.13511 0,0.17677 -0.11793,0.11794 -0.23561,-0.11793 -0.35355,0 -0.0417,0.0417 0.0417,0.13511 0,0.17678 -0.0833,0.0833 -0.26153,-0.0736 -0.35355,0 -0.26029,0.20823 -0.47141,0.47141 -0.70711,0.70711 z"
           id="path4625"
           inkscape:connector-curvature="0" />
        <path
           style="fill:#008000;fill-rule:evenodd;stroke:#000000;stroke-width:1px;stroke-linecap:butt;stroke-linejoin:miter;stroke-opacity:1"
           d="m 504.19226,554.73581 c 0.2357,-0.0589 0.48153,-0.0865 0.70711,-0.17678 0.0579,-0.0232 0.46174,-0.46174 0.53033,-0.53033 0.0931,-0.0931 0.48312,-0.43592 0.53033,-0.53033 0.0263,-0.0527 -0.0264,-0.12407 0,-0.17678 0.0745,-0.14907 0.2611,-0.21488 0.35355,-0.35355 0.38947,-0.089 0.0935,-0.36366 0.17678,-0.53033 0.0373,-0.0745 0.13951,-0.10224 0.17678,-0.17678 0.0521,-0.1043 -0.0405,-0.40873 0,-0.53033 0.0417,-0.125 0.13511,-0.22855 0.17677,-0.35355 0.0559,-0.16771 -0.0347,-0.35699 0,-0.53033 0.0366,-0.18272 0.14023,-0.34761 0.17678,-0.53033 0.0383,-0.19144 0,-1.04847 0,-1.23744 0,-0.64818 0,-1.29636 0,-1.94454 0,-0.0649 -0.007,-0.69999 0,-0.70711 0.0417,-0.0417 0.13511,0.0417 0.17678,0 0.0417,-0.0417 0,-0.11785 0,-0.17677 0,-0.0589 0,-0.11786 0,-0.17678 0,-0.41457 -0.0417,0.0833 0.17677,-0.35355 0.0232,-0.0465 0,-0.61467 0,-0.70711 0,-0.35355 0,-0.70711 0,-1.06066 0,-0.0589 -0.0417,-0.13511 0,-0.17678 0.0417,-0.0417 0.13511,0.0417 0.17678,0 0.0547,-0.0547 -0.0547,-0.82914 0,-0.88388 0.0417,-0.0417 0.13511,0.0417 0.17678,0 0.0417,-0.0417 0,-0.11785 0,-0.17678 0,-0.0589 0,-0.11785 0,-0.17678 0,-0.0589 0.0417,-0.13511 0,-0.17677 -0.0177,-0.0177 -0.51266,-0.0177 -0.53033,0 -0.0417,0.0417 0.0417,0.13511 0,0.17677 -0.0417,0.0417 -0.12408,-0.0264 -0.17678,0 -0.0745,0.0373 -0.11785,0.11786 -0.17678,0.17678 -0.11785,0 -0.24175,-0.0373 -0.35355,0 -0.15811,0.0527 -0.20448,0.27902 -0.35355,0.35355 -0.0527,0.0264 -0.13511,-0.0417 -0.17678,0 -0.0417,0.0417 0.0263,0.12408 0,0.17678 -0.10607,0.21213 -0.42427,0.3182 -0.53033,0.53033 -0.0264,0.0527 0.0263,0.12407 0,0.17678 -0.0373,0.0745 -0.13951,0.10224 -0.17678,0.17678 -0.0527,0.1054 0.0833,0.27022 0,0.35355 -0.0417,0.0417 -0.13511,-0.0417 -0.17677,0 -0.007,0.007 0,0.64219 0,0.70711 0,0.48952 -0.17678,-0.13598 -0.17678,0.35355 0,0.53033 0,1.06066 0,1.59099 0,0.0924 0.0232,0.66062 0,0.70711 -0.0373,0.0745 -0.13951,0.10224 -0.17678,0.17677 -0.0269,0.0538 0,0.45072 0,0.53033 0,0.35356 0,0.70711 0,1.06066 0,0.0429 0.006,0.52465 0,0.53033 -0.0417,0.0417 -0.13511,-0.0417 -0.17677,0 -0.0417,0.0417 0,0.11785 0,0.17678 0,0.41248 0,0.82496 0,1.23744 0,0.0589 0,0.11785 0,0.17677 0,0.0589 0.0417,0.13511 0,0.17678 -0.0417,0.0417 -0.13511,-0.0417 -0.17678,0 -0.0417,0.0417 0,0.11785 0,0.17678 0,0.0589 0,0.11785 0,0.17677 0,0.47141 0,0.94281 0,1.41422 0,0.0589 0,0.11785 0,0.17677 0,0.0589 0.0589,0.17678 0,0.17678 -0.0589,0 0.0143,-0.23394 0,-0.17678 -0.0729,0.29149 -0.11785,0.58926 -0.17678,0.88389 z"
           id="path4627"
           inkscape:connector-curvature="0" />
        <path
           style="fill:#008000;fill-rule:evenodd;stroke:#000000;stroke-width:1px;stroke-linecap:butt;stroke-linejoin:miter;stroke-opacity:1"
           d="m 501.71739,559.15522 c -0.19312,-0.96559 0.0357,-0.67142 -0.35356,-1.06066 -0.0589,-0.0589 -0.15042,-0.0977 -0.17677,-0.17677 -0.0373,-0.11181 0.0373,-0.24175 0,-0.35356 -0.0263,-0.079 -0.13055,-0.10744 -0.17678,-0.17677 -0.0731,-0.10964 -0.10369,-0.24392 -0.17678,-0.35356 -0.0462,-0.0693 -0.13055,-0.10744 -0.17677,-0.17677 -0.0589,-0.11785 -0.11785,-0.23571 -0.17678,-0.35356 0,-0.0589 0.0264,-0.12407 0,-0.17677 -0.0373,-0.0745 -0.13055,-0.10744 -0.17678,-0.17678 -0.14617,-0.21926 -0.20737,-0.48784 -0.35355,-0.70711 -0.0462,-0.0693 -0.15042,-0.0977 -0.17678,-0.17677 -0.0373,-0.11181 0.0373,-0.24175 0,-0.35356 -0.0263,-0.0791 -0.11785,-0.11785 -0.17677,-0.17677 -0.20226,-0.20226 -0.24653,-0.20927 -0.35356,-0.53033 -0.0186,-0.0559 0.0186,-0.12088 0,-0.17678 -0.0417,-0.125 -0.13511,-0.22855 -0.17677,-0.35355 -0.0186,-0.0559 0.0263,-0.12408 0,-0.17678 -0.0745,-0.14907 -0.27902,-0.20448 -0.35356,-0.35355 -0.0263,-0.0527 0,-0.11785 0,-0.17678 -0.0589,-0.0589 -0.1395,-0.10224 -0.17677,-0.17678 -0.0264,-0.0527 0.0417,-0.13511 0,-0.17677 -0.0417,-0.0417 -0.13511,0.0417 -0.17678,0 -0.0417,-0.0417 0.0263,-0.12408 0,-0.17678 -0.0745,-0.14907 -0.27902,-0.20448 -0.35355,-0.35355 -0.0264,-0.0527 0.0417,-0.13511 0,-0.17678 -0.36576,-0.36576 0.0143,0.55893 -0.35356,-0.17678 -0.0263,-0.0527 0,-0.11785 0,-0.17677 -0.0589,-0.0589 -0.1395,-0.10224 -0.17677,-0.17678 -0.0263,-0.0527 0.0417,-0.13511 0,-0.17678 -0.0417,-0.0417 -0.13511,0.0417 -0.17678,0 -0.0417,-0.0417 0.0263,-0.12407 0,-0.17677 -0.36785,-0.73571 0.0122,0.18898 -0.35355,-0.17678 -0.0417,-0.0417 0.0417,-0.13511 0,-0.17678 -0.0417,-0.0417 -0.13511,0.0417 -0.17678,0 -0.0417,-0.0417 0.0417,-0.13511 0,-0.17677 -0.0417,-0.0417 -0.13511,0.0417 -0.17678,0 -0.0417,-0.0417 0.0417,-0.13511 0,-0.17678 -0.0417,-0.0417 -0.13511,0.0417 -0.17677,0 -0.0417,-0.0417 0.0417,-0.13511 0,-0.17678 -0.0833,-0.0833 -0.27022,0.0833 -0.35356,0 -0.0417,-0.0417 0.0417,-0.13511 0,-0.17677 -0.0417,-0.0417 -0.12407,0.0263 -0.17677,0 -0.73571,-0.36786 0.18898,0.0122 -0.17678,-0.35356 -0.0417,-0.0417 -0.13511,0.0417 -0.17678,0 -0.0417,-0.0417 0.0417,-0.13511 0,-0.17677 -0.0417,-0.0417 -0.13511,0.0417 -0.17677,0 -0.0417,-0.0417 0.0417,-0.13511 0,-0.17678 -0.0417,-0.0417 -0.13511,0.0417 -0.17678,0 -0.0417,-0.0417 0.0417,-0.13511 0,-0.17678 -0.0417,-0.0417 -0.13511,0.0417 -0.17678,0 -0.0417,-0.0417 0.0417,-0.13511 0,-0.17677 -0.0417,-0.0417 -0.13511,0.0417 -0.17677,0 -0.0417,-0.0417 0.0417,-0.13511 0,-0.17678 -0.0417,-0.0417 -0.13511,0.0417 -0.17678,0 -0.0417,-0.0417 0.0417,-0.13511 0,-0.17678 -0.0417,-0.0417 -0.13511,0.0417 -0.17678,0 -0.0417,-0.0417 0.0417,-0.13511 0,-0.17677 -0.0417,-0.0417 -0.13511,0.0417 -0.17677,0 -0.0417,-0.0417 0.0417,-0.13511 0,-0.17678 -0.0417,-0.0417 -0.13511,0.0417 -0.17678,0 -0.2357,-0.2357 0.29463,-0.17678 -0.17678,-0.17678 -0.0429,0 -0.52464,-0.006 -0.53033,0 -0.006,0.006 0,0.48746 0,0.53033 0,0.0833 -0.008,0.87587 0,0.88389 0.0417,0.0417 0.13511,-0.0417 0.17678,0 0.0417,0.0417 -0.0417,0.13511 0,0.17677 0.0417,0.0417 0.13511,-0.0417 0.17678,0 0.0417,0.0417 -0.0417,0.13511 0,0.17678 0.0833,0.0833 0.27022,-0.0833 0.35355,0 0.0417,0.0417 -0.0417,0.13511 0,0.17678 0.0417,0.0417 0.13511,-0.0417 0.17678,0 0.0417,0.0417 -0.0417,0.13511 0,0.17677 0.0417,0.0417 0.13511,-0.0417 0.17677,0 0.0417,0.0417 0,0.11785 0,0.17678 0.0589,0 0.12408,-0.0263 0.17678,0 0.7357,0.36785 -0.18898,-0.0122 0.17678,0.35355 0.0417,0.0417 0.13511,-0.0417 0.17677,0 0.0417,0.0417 -0.0417,0.13511 0,0.17678 0.0417,0.0417 0.13511,-0.0417 0.17678,0 0.0833,0.0833 -0.0833,0.27022 0,0.35355 0.0417,0.0417 0.13511,-0.0417 0.17678,0 0.0884,0.0884 -0.0884,0.44194 0,0.53033 0.0417,0.0417 0.13511,-0.0417 0.17677,0 0.0361,0.0361 -0.035,0.46024 0,0.53033 0.5863,0.5863 -0.0833,-0.16666 0.17678,0.35356 0.0745,0.14907 0.27902,0.20448 0.35355,0.35355 0.0264,0.0527 -0.0417,0.13511 0,0.17678 0.0417,0.0417 0.13511,-0.0417 0.17678,0 0.11794,0.11793 -0.11794,0.23561 0,0.35355 0.0417,0.0417 0.13511,-0.0417 0.17678,0 0.0417,0.0417 -0.0264,0.12407 0,0.17678 0.0373,0.0745 0.13951,0.10224 0.17677,0.17677 0.0264,0.0527 -0.0264,0.12408 0,0.17678 0.0373,0.0745 0.13951,0.10224 0.17678,0.17678 0.0527,0.10541 -0.0527,0.24814 0,0.35355 0.0373,0.0745 0.13951,0.10224 0.17678,0.17678 0.0264,0.0527 -0.0417,0.13511 0,0.17677 0.0417,0.0417 0.13511,-0.0417 0.17677,0 0.0417,0.0417 -0.0417,0.13511 0,0.17678 0.0417,0.0417 0.13511,-0.0417 0.17678,0 0.0833,0.0833 -0.0833,0.27022 0,0.35355 0.0417,0.0417 0.13511,-0.0417 0.17678,0 0.0417,0.0417 -0.0263,0.12408 0,0.17678 0.0373,0.0745 0.11785,0.11785 0.17677,0.17678 0.0589,0.0589 0.10225,0.13951 0.17678,0.17677 0.0527,0.0264 0.13511,-0.0417 0.17678,0 0.0417,0.0417 -0.0417,0.13511 0,0.17678 0.0417,0.0417 0.13511,-0.0417 0.17677,0 0.0417,0.0417 -0.0417,0.13511 0,0.17678 0.0833,0.0833 0.27022,-0.0833 0.35356,0 0.0417,0.0417 -0.0417,0.13511 0,0.17677 0.11793,0.11794 0.23561,-0.11793 0.35355,0 0.0417,0.0417 -0.0417,0.13511 0,0.17678 0.0417,0.0417 0.12407,-0.0263 0.17678,0 0.14907,0.0745 0.20448,0.27902 0.35355,0.35355 0.10541,0.0527 0.27022,-0.0833 0.35355,0 0.0417,0.0417 -0.0417,0.13511 0,0.17678 0.0417,0.0417 0.13511,-0.0417 0.17678,0 0.0833,0.0833 -0.0833,0.27022 0,0.35355 0.0417,0.0417 0.13511,-0.0417 0.17678,0 0.0833,0.0833 -0.0833,0.27022 0,0.35356 0.0417,0.0417 0.13511,-0.0417 0.17677,0 0.0833,0.0833 -0.0833,0.27022 0,0.35355 0.0417,0.0417 0.13511,-0.0417 0.17678,0 0.0833,0.0833 -0.0833,0.27022 0,0.35355 0.0417,0.0417 0.13511,-0.0417 0.17678,0 0.0417,0.0417 -0.0417,0.13511 0,0.17678 0.0417,0.0417 0.13511,-0.0417 0.17677,0 0.0417,0.0417 -0.0417,0.13511 0,0.17678 0.0417,0.0417 0.119,-0.0116 0.17678,0 0.23824,0.0477 0.47141,0.11785 0.70711,0.17677 z"
           id="path4633"
           inkscape:connector-curvature="0" />
        <path
           style="fill:#008000;fill-rule:evenodd;stroke:#000000;stroke-width:1px;stroke-linecap:butt;stroke-linejoin:miter;stroke-opacity:1"
           d="m 500.8335,563.39786 c -0.17677,-0.2357 -0.35355,-0.4714 -0.53033,-0.7071 -0.0589,0 -0.13511,0.0417 -0.17677,0 -0.0417,-0.0417 0.0417,-0.13511 0,-0.17678 -0.0417,-0.0417 -0.13511,0.0417 -0.17678,0 -0.0417,-0.0417 0.0417,-0.13511 0,-0.17678 -0.0417,-0.0417 -0.13511,0.0417 -0.17678,0 -0.0417,-0.0417 0.0264,-0.12407 0,-0.17677 -0.0373,-0.0745 -0.1395,-0.10224 -0.17677,-0.17678 -0.0263,-0.0527 0.0263,-0.12407 0,-0.17678 -0.10607,-0.21213 -0.42427,-0.31819 -0.53033,-0.53033 -0.0263,-0.0527 0.0263,-0.12407 0,-0.17677 -0.0745,-0.14907 -0.26111,-0.21488 -0.35356,-0.35356 -0.0731,-0.10963 -0.10368,-0.24392 -0.17677,-0.35355 -0.0462,-0.0693 -0.15043,-0.0977 -0.17678,-0.17678 -0.0373,-0.1118 0.0373,-0.24175 0,-0.35355 -0.0527,-0.15811 -0.27902,-0.20448 -0.35355,-0.35355 -0.0264,-0.0527 0.0263,-0.12407 0,-0.17678 -0.36785,-0.7357 0.0122,0.18898 -0.35356,-0.17678 -0.0417,-0.0417 0.0417,-0.13511 0,-0.17677 -0.0417,-0.0417 -0.13511,0.0417 -0.17677,0 -0.0417,-0.0417 0.0417,-0.13511 0,-0.17678 -0.0417,-0.0417 -0.13511,0.0417 -0.17678,0 -0.0417,-0.0417 0.0263,-0.12407 0,-0.17678 -0.0373,-0.0745 -0.13951,-0.10224 -0.17678,-0.17677 -0.0264,-0.0527 0.0417,-0.13511 0,-0.17678 -0.0417,-0.0417 -0.13511,0.0417 -0.17677,0 -0.0417,-0.0417 0.0264,-0.12407 0,-0.17678 -0.0745,-0.14907 -0.27902,-0.20448 -0.35356,-0.35355 -0.0264,-0.0527 0.0417,-0.13511 0,-0.17678 -0.0417,-0.0417 -0.12407,0.0264 -0.17677,0 -0.0469,-0.0235 -0.50686,-0.48339 -0.53033,-0.53033 -0.0264,-0.0527 0.0263,-0.12407 0,-0.17677 -0.0169,-0.0338 -0.67327,-0.69019 -0.70711,-0.70711 -0.0527,-0.0264 -0.13511,0.0417 -0.17678,0 -0.36575,-0.36576 0.55893,0.0143 -0.17677,-0.35355 -0.0527,-0.0264 -0.12408,0.0263 -0.17678,0 -0.0745,-0.0373 -0.10224,-0.13951 -0.17678,-0.17678 -0.0527,-0.0263 -0.13511,0.0417 -0.17677,0 -0.0417,-0.0417 0.0417,-0.13511 0,-0.17678 -0.0417,-0.0417 -0.13511,0.0417 -0.17678,0 -0.0417,-0.0417 0.0417,-0.13511 0,-0.17677 -0.0417,-0.0417 -0.13511,0.0417 -0.17678,0 -0.0417,-0.0417 0.0417,-0.13511 0,-0.17678 -0.0884,-0.0884 -0.44194,0.0884 -0.53033,0 -0.0417,-0.0417 0.0417,-0.13511 0,-0.17678 -0.0417,-0.0417 -0.13511,0.0417 -0.17677,0 -0.23571,-0.2357 0.29462,-0.17677 -0.17678,-0.17677 -0.0589,0 -0.13511,0.0417 -0.17678,0 -0.0417,-0.0417 0.0417,-0.13511 0,-0.17678 -0.0417,-0.0417 -0.13511,-0.0417 -0.17677,0 -0.006,0.006 0,0.48746 0,0.53033 0,0.0833 -0.008,0.87587 0,0.88388 0.0417,0.0417 0.13511,-0.0417 0.17677,0 0.0884,0.0884 -0.0884,0.44195 0,0.53033 0.0417,0.0417 0.13511,-0.0417 0.17678,0 0.0417,0.0417 -0.0264,0.12408 0,0.17678 0.0373,0.0745 0.13951,0.10224 0.17678,0.17678 0.0264,0.0527 -0.0417,0.13511 0,0.17677 0.0417,0.0417 0.13511,-0.0417 0.17677,0 0.0417,0.0417 -0.0264,0.12408 0,0.17678 0.36785,0.7357 -0.0122,-0.18898 0.35356,0.17678 0.0417,0.0417 -0.0417,0.13511 0,0.17677 0.0417,0.0417 0.13511,-0.0417 0.17677,0 0.0417,0.0417 -0.0263,0.12408 0,0.17678 0.0373,0.0745 0.13951,0.10224 0.17678,0.17678 0.0263,0.0527 -0.0417,0.13511 0,0.17677 0.0417,0.0417 0.13511,-0.0417 0.17678,0 0.0417,0.0417 -0.0417,0.13511 0,0.17678 0.11793,0.11794 0.23561,-0.11794 0.35355,0 0.0833,0.0833 -0.0833,0.27022 0,0.35355 0.0417,0.0417 0.13511,-0.0417 0.17678,0 0.0417,0.0417 -0.0417,0.13511 0,0.17678 0.0417,0.0417 0.13511,-0.0417 0.17677,0 0.0833,0.0833 -0.0527,0.24814 0,0.35355 0.0373,0.0745 0.13951,0.10225 0.17678,0.17678 0.0263,0.0527 -0.0417,0.13511 0,0.17678 0.0417,0.0417 0.13511,-0.0417 0.17678,0 0.0417,0.0417 -0.0417,0.13511 0,0.17677 0.0417,0.0417 0.13511,-0.0417 0.17677,0 0.0833,0.0833 -0.0833,0.27022 0,0.35356 0.0417,0.0417 0.13511,-0.0417 0.17678,0 0.0417,0.0417 -0.0417,0.13511 0,0.17677 0.0417,0.0417 0.13511,-0.0417 0.17678,0 0.11786,0.11787 -0.11787,0.23569 0,0.35356 0.0417,0.0417 0.13511,-0.0417 0.17677,0 0.0417,0.0417 -0.0264,0.12407 0,0.17677 0.0373,0.0745 0.13951,0.10225 0.17678,0.17678 0.0264,0.0527 -0.0263,0.12407 0,0.17678 0.0373,0.0745 0.13951,0.10224 0.17678,0.17677 0.0527,0.10541 -0.0833,0.27022 0,0.35356 0.0417,0.0417 0.13511,-0.0417 0.17677,0 0.11794,0.11793 -0.11793,0.23562 0,0.35355 0.0417,0.0417 0.13511,-0.0417 0.17678,0 0.0417,0.0417 -0.0417,0.13511 0,0.17678 0.0417,0.0417 0.13511,-0.0417 0.17678,0 0.0417,0.0417 -0.0417,0.13511 0,0.17677 0.0417,0.0417 0.13511,-0.0417 0.17677,0 0.0417,0.0417 -0.0417,0.13511 0,0.17678 0.0417,0.0417 0.13511,-0.0417 0.17678,0 0.0417,0.0417 -0.0417,0.13511 0,0.17678 0.0417,0.0417 0.12407,-0.0263 0.17678,0 0.0745,0.0373 0.10224,0.13951 0.17677,0.17677 0.0527,0.0264 0.13511,-0.0417 0.17678,0 0.0417,0.0417 -0.0417,0.13511 0,0.17678 0.0884,0.0884 0.44194,-0.0884 0.53033,0 0.0417,0.0417 -0.0417,0.13511 0,0.17678 0.0417,0.0417 0.11785,0 0.17678,0 0.0589,0 0.11785,0 0.17677,0 0.35356,0 0.70711,0 1.06066,0 0.11786,0 0.238,-0.0231 0.35356,0 0.23824,0.0476 0.4714,0.11785 0.7071,0.17677 z"
           id="path4635"
           inkscape:connector-curvature="0" />
        <path
           style="fill:#008000;fill-rule:evenodd;stroke:#000000;stroke-width:1px;stroke-linecap:butt;stroke-linejoin:miter;stroke-opacity:1"
           d="m 501.71739,568.52439 c -0.2357,-0.0589 -0.47141,-0.11785 -0.70711,-0.17678 -0.0589,-0.0589 -0.10224,-0.13951 -0.17678,-0.17677 -0.0527,-0.0264 -0.12087,0.0186 -0.17677,0 -0.125,-0.0417 -0.22856,-0.13511 -0.35356,-0.17678 -0.0559,-0.0186 -0.12407,0.0263 -0.17677,0 -0.0745,-0.0373 -0.10744,-0.13055 -0.17678,-0.17678 -0.10963,-0.0731 -0.24392,-0.10369 -0.35355,-0.17677 -0.15254,-0.1017 -0.39225,-0.39226 -0.53033,-0.53033 -0.0931,-0.0931 -0.48313,-0.43592 -0.53033,-0.53033 -0.26011,-0.52022 0.40952,0.23274 -0.17678,-0.35356 -0.40532,-0.40532 0.0745,0.11181 -0.35355,-0.53033 -0.1017,-0.15254 -0.39225,-0.39225 -0.53033,-0.53033 -0.11785,-0.11785 -0.26111,-0.21488 -0.35356,-0.35355 -0.0731,-0.10963 -0.10368,-0.24392 -0.17677,-0.35355 -0.0924,-0.13868 -0.26111,-0.21488 -0.35356,-0.35356 -0.0731,-0.10963 -0.10368,-0.24392 -0.17677,-0.35355 -0.10728,-0.16092 -0.45199,-0.37365 -0.53033,-0.53033 -0.0264,-0.0527 0.0417,-0.13511 0,-0.17678 -0.0417,-0.0417 -0.13511,0.0417 -0.17678,0 -0.0417,-0.0417 0.0417,-0.13511 0,-0.17678 -0.0417,-0.0417 -0.13511,0.0417 -0.17678,0 -0.0833,-0.0833 0.0833,-0.27022 0,-0.35355 -0.0417,-0.0417 -0.13511,0.0417 -0.17677,0 -0.0417,-0.0417 0.0417,-0.13511 0,-0.17678 -0.0417,-0.0417 -0.13511,0.0417 -0.17678,0 -0.0417,-0.0417 0.0417,-0.13511 0,-0.17677 -0.0833,-0.0833 -0.27022,0.0833 -0.35355,0 -0.0417,-0.0417 0.0417,-0.13511 0,-0.17678 -0.0417,-0.0417 -0.13511,0.0417 -0.17678,0 -0.0417,-0.0417 0.0417,-0.13511 0,-0.17678 -0.11786,-0.11786 -0.23569,0.11787 -0.35355,0 -0.0417,-0.0417 0.0417,-0.13511 0,-0.17677 -0.0417,-0.0417 -0.13511,0.0417 -0.17678,0 -0.0417,-0.0417 0.0417,-0.13511 0,-0.17678 -0.0833,-0.0833 -0.27022,0.0833 -0.35355,0 -0.0417,-0.0417 0.0417,-0.13511 0,-0.17678 -0.0417,-0.0417 -0.13511,0.0417 -0.17678,0 -0.0417,-0.0417 0.0417,-0.13511 0,-0.17677 -0.0833,-0.0833 -0.27022,0.0833 -0.35355,0 -0.0417,-0.0417 0.0417,-0.13511 0,-0.17678 -0.11794,-0.11793 -0.23562,0.11794 -0.35356,0 -0.0417,-0.0417 0.0417,-0.13511 0,-0.17678 -0.0833,-0.0833 -0.27022,0.0833 -0.35355,0 -0.0417,-0.0417 0.0417,-0.13511 0,-0.17677 -0.0177,-0.0177 -0.51265,-0.0177 -0.53033,0 -0.006,0.006 0,0.48745 0,0.53033 0,0.0649 -0.007,0.69999 0,0.7071 0.0417,0.0417 0.13511,-0.0417 0.17678,0 0.0417,0.0417 -0.0417,0.13511 0,0.17678 0.0417,0.0417 0.13511,-0.0417 0.17677,0 0.0417,0.0417 -0.0417,0.13511 0,0.17678 0.0833,0.0833 0.27022,-0.0833 0.35356,0 0.0417,0.0417 -0.0417,0.13511 0,0.17677 0.0833,0.0833 0.27022,-0.0833 0.35355,0 0.0417,0.0417 -0.0417,0.13511 0,0.17678 0.0417,0.0417 0.13511,-0.0417 0.17678,0 0.0417,0.0417 -0.0417,0.13511 0,0.17678 0.0417,0.0417 0.13511,-0.0417 0.17677,0 0.0417,0.0417 -0.0417,0.13511 0,0.17677 0.0417,0.0417 0.13511,-0.0417 0.17678,0 0.36576,0.36576 -0.55893,-0.0143 0.17678,0.35356 0.0527,0.0263 0.13511,-0.0417 0.17677,0 0.0833,0.0833 -0.0833,0.27022 0,0.35355 0.0417,0.0417 0.13511,-0.0417 0.17678,0 0.0417,0.0417 -0.0417,0.13511 0,0.17678 0.0417,0.0417 0.13511,-0.0417 0.17678,0 0.0417,0.0417 -0.0417,0.13511 0,0.17677 0.0417,0.0417 0.13511,-0.0417 0.17677,0 0.0417,0.0417 -0.0417,0.13512 0,0.17678 0.0417,0.0417 0.13511,-0.0417 0.17678,0 0.0417,0.0417 -0.0417,0.13511 0,0.17678 0.0417,0.0417 0.13511,-0.0417 0.17678,0 0.36575,0.36576 -0.55893,-0.0143 0.17677,0.35355 0.0527,0.0263 0.13511,-0.0417 0.17678,0 0.0417,0.0417 -0.0263,0.12407 0,0.17678 0.0745,0.14907 0.27902,0.20448 0.35355,0.35355 0.0264,0.0527 -0.0263,0.12407 0,0.17678 0.36785,0.7357 -0.0122,-0.18898 0.35356,0.17678 0.0417,0.0417 -0.0264,0.12407 0,0.17677 0.36785,0.7357 -0.0122,-0.18898 0.35355,0.17678 0.0417,0.0417 -0.0417,0.13511 0,0.17678 0.0417,0.0417 0.12407,-0.0264 0.17678,0 0.0745,0.0373 0.10224,0.1395 0.17677,0.17677 0.10541,0.0527 0.27022,-0.0833 0.35356,0 0.0417,0.0417 -0.0417,0.13511 0,0.17678 0.0833,0.0833 0.27022,-0.0833 0.35355,0 0.0417,0.0417 -0.0417,0.13511 0,0.17678 0.0833,0.0833 0.27022,-0.0833 0.35355,0 0.0417,0.0417 -0.0417,0.13511 0,0.17677 0.0417,0.0417 0.13511,-0.0417 0.17678,0 0.0417,0.0417 -0.0417,0.13511 0,0.17678 0.0417,0.0417 0.13511,-0.0417 0.17678,0 0.0417,0.0417 -0.0417,0.13511 0,0.17678 0.0884,0.0884 0.44194,-0.0884 0.53033,0 0.0417,0.0417 -0.0417,0.13511 0,0.17677 0.0884,0.0884 0.44194,-0.0884 0.53033,0 0.0417,0.0417 -0.0417,0.13511 0,0.17678 0.0833,0.0833 0.27022,-0.0833 0.35355,0 0.0417,0.0417 -0.0417,0.13511 0,0.17678 0.0833,0.0833 0.27022,-0.0833 0.35355,0 0.0417,0.0417 -0.0417,0.13511 0,0.17677 0.0417,0.0417 0.13511,-0.0417 0.17678,0 0.0417,0.0417 -0.0417,0.13511 0,0.17678 0.0417,0.0417 0.13511,-0.0417 0.17678,0 0.0417,0.0417 -0.0417,0.13511 0,0.17678 0.0417,0.0417 0.13511,-0.0417 0.17677,0 0.0417,0.0417 -0.0417,0.13511 0,0.17677 0.0417,0.0417 0.13511,-0.0417 0.17678,0 0.0417,0.0417 -0.0417,0.13511 0,0.17678 0.0417,0.0417 0.13511,-0.0417 0.17678,0 0.0417,0.0417 -0.0417,0.13511 0,0.17678 0.0417,0.0417 0.11785,0 0.17677,0 0.41974,0 0.11962,0.0143 0.88389,-0.17678 z"
           id="path4637"
           inkscape:connector-curvature="0" />
        <path
           style="fill:#008000;fill-rule:evenodd;stroke:#000000;stroke-width:1px;stroke-linecap:butt;stroke-linejoin:miter;stroke-opacity:1"
           d="m 501.18706,574.35802 c -0.7451,-0.14172 -0.0424,-0.61514 -0.17678,-0.88388 -0.0373,-0.0745 -0.13951,-0.10224 -0.17678,-0.17678 -0.0264,-0.0527 0.0264,-0.12407 0,-0.17678 -0.0373,-0.0745 -0.1395,-0.10224 -0.17677,-0.17677 -0.0263,-0.0527 0,-0.11785 0,-0.17678 -0.0589,-0.11785 -0.10369,-0.24392 -0.17678,-0.35355 -0.10728,-0.16093 -0.45199,-0.37365 -0.53033,-0.53033 -0.0263,-0.0527 0.0264,-0.12408 0,-0.17678 -0.0373,-0.0745 -0.13951,-0.10224 -0.17678,-0.17678 -0.0263,-0.0527 0.0264,-0.12407 0,-0.17677 -0.0745,-0.14908 -0.27901,-0.20449 -0.35355,-0.35356 -0.2177,-0.43539 0.51314,0.15959 -0.17678,-0.53033 -0.0417,-0.0417 -0.13511,0.0417 -0.17677,0 -0.0417,-0.0417 0.0263,-0.12407 0,-0.17677 -0.10607,-0.21214 -0.42427,-0.3182 -0.53033,-0.53033 -0.0264,-0.0527 0.0263,-0.12408 0,-0.17678 -0.0373,-0.0745 -0.11785,-0.11785 -0.17678,-0.17678 -0.0589,-0.0589 -0.10224,-0.13951 -0.17678,-0.17677 -0.0527,-0.0264 -0.12407,0.0263 -0.17677,0 -0.0745,-0.0373 -0.10224,-0.13951 -0.17678,-0.17678 -0.0527,-0.0263 -0.13511,0.0417 -0.17678,0 -0.0417,-0.0417 0.0264,-0.12407 0,-0.17678 -0.0235,-0.0469 -0.48339,-0.50686 -0.53033,-0.53033 -0.0527,-0.0263 -0.13511,0.0417 -0.17677,0 -0.0932,-0.0932 -0.0836,-0.26038 -0.17678,-0.35355 -0.0417,-0.0417 -0.12407,0.0263 -0.17678,0 -0.14907,-0.0745 -0.21487,-0.2611 -0.35355,-0.35355 -0.10963,-0.0731 -0.26038,-0.0836 -0.35355,-0.17678 -0.0417,-0.0417 0.0417,-0.13511 0,-0.17678 -0.0417,-0.0417 -0.12407,0.0263 -0.17678,0 -0.0745,-0.0373 -0.10224,-0.13951 -0.17678,-0.17677 -0.0527,-0.0264 -0.13511,0.0417 -0.17677,0 -0.0417,-0.0417 0.0417,-0.13511 0,-0.17678 -0.0833,-0.0833 -0.24815,0.0527 -0.35356,0 -0.7357,-0.36785 0.18898,0.0122 -0.17677,-0.35355 -0.0417,-0.0417 -0.12408,0.0263 -0.17678,0 -0.0469,-0.0235 -0.50686,-0.4834 -0.53033,-0.53033 -0.0264,-0.0527 0.0417,-0.13511 0,-0.17678 -0.0417,-0.0417 -0.12407,0.0263 -0.17678,0 -0.0745,-0.0373 -0.10224,-0.13951 -0.17677,-0.17678 -0.0527,-0.0263 -0.13511,0.0417 -0.17678,0 -0.0417,-0.0417 0.0417,-0.13511 0,-0.17677 -0.0417,-0.0417 -0.13511,0.0417 -0.17678,0 -0.0417,-0.0417 0.0417,-0.13511 0,-0.17678 -0.0417,-0.0417 -0.13511,0.0417 -0.17677,0 -0.0417,-0.0417 0.0417,-0.13511 0,-0.17678 -0.0417,-0.0417 -0.11785,0 -0.17678,0 -0.0429,0 -0.52464,-0.006 -0.53033,0 -0.0884,0.0884 0.0884,0.44194 0,0.53033 -0.0417,0.0417 -0.13511,-0.0417 -0.17678,0 -0.008,0.008 0,0.80054 0,0.88389 0,0.0589 -0.0417,0.13511 0,0.17677 0.0417,0.0417 0.13511,-0.0417 0.17678,0 0.0417,0.0417 -0.0417,0.13511 0,0.17678 0.0417,0.0417 0.13511,-0.0417 0.17678,0 0.36575,0.36576 -0.55893,-0.0143 0.17677,0.35355 0.0527,0.0263 0.13511,-0.0417 0.17678,0 0.36576,0.36576 -0.55893,-0.0143 0.17678,0.35356 0.24383,0.12191 0.15812,-0.21409 0.35355,0.17677 0.12192,0.24384 -0.21409,0.15812 0.17678,0.35356 0.0527,0.0263 0.13511,-0.0417 0.17677,0 0.0417,0.0417 -0.0263,0.12407 0,0.17677 0.0373,0.0745 0.13951,0.10224 0.17678,0.17678 0.0263,0.0527 -0.0264,0.12407 0,0.17678 0.36785,0.7357 -0.0122,-0.18898 0.35355,0.17677 0.0417,0.0417 -0.0263,0.12407 0,0.17678 0.36785,0.7357 -0.0122,-0.18898 0.35356,0.17678 0.0417,0.0417 -0.0417,0.13511 0,0.17677 0.0417,0.0417 0.13511,-0.0417 0.17677,0 0.0417,0.0417 -0.0417,0.13511 0,0.17678 0.0833,0.0833 0.27022,-0.0833 0.35356,0 0.0417,0.0417 -0.0417,0.13511 0,0.17678 0.0417,0.0417 0.13511,-0.0417 0.17677,0 0.0417,0.0417 -0.0263,0.12407 0,0.17677 0.0373,0.0745 0.13951,0.10224 0.17678,0.17678 0.0264,0.0527 -0.0417,0.13511 0,0.17678 0.0417,0.0417 0.13511,-0.0417 0.17678,0 0.0417,0.0417 -0.0417,0.13511 0,0.17677 0.0417,0.0417 0.13511,-0.0417 0.17677,0 0.0417,0.0417 -0.0264,0.12407 0,0.17678 0.0373,0.0745 0.13951,0.10224 0.17678,0.17678 0.0264,0.0527 -0.0417,0.13511 0,0.17677 0.0417,0.0417 0.13511,-0.0417 0.17678,0 0.0417,0.0417 -0.0417,0.13511 0,0.17678 0.0417,0.0417 0.13511,-0.0417 0.17677,0 0.0417,0.0417 -0.0417,0.13511 0,0.17678 0.0417,0.0417 0.13511,-0.0417 0.17678,0 0.0417,0.0417 -0.0417,0.13511 0,0.17677 0.0417,0.0417 0.13511,-0.0417 0.17678,0 0.11793,0.11794 -0.11794,0.23562 0,0.35356 0.0417,0.0417 0.13511,-0.0417 0.17677,0 0.0417,0.0417 -0.0264,0.12407 0,0.17677 0.0373,0.0745 0.13951,0.10224 0.17678,0.17678 0.0263,0.0527 -0.0417,0.13511 0,0.17678 0.0417,0.0417 0.13511,-0.0417 0.17678,0 0.0417,0.0417 -0.0417,0.13511 0,0.17677 0.0417,0.0417 0.13511,-0.0417 0.17677,0 0.0417,0.0417 -0.0417,0.13511 0,0.17678 0.0417,0.0417 0.13511,-0.0417 0.17678,0 0.0417,0.0417 -0.0417,0.13511 0,0.17678 0.0417,0.0417 0.13511,-0.0417 0.17678,0 0.0417,0.0417 -0.0417,0.13511 0,0.17677 0.0833,0.0833 0.27022,-0.0833 0.35355,0 0.0417,0.0417 -0.0417,0.13511 0,0.17678 0.0417,0.0417 0.13511,-0.0417 0.17678,0 0.0417,0.0417 -0.0417,0.13511 0,0.17678 0.0884,0.0884 0.44194,-0.0884 0.53033,0 0.0417,0.0417 -0.0417,0.13511 0,0.17677 0.0884,0.0884 0.44194,-0.0884 0.53033,0 0.0417,0.0417 -0.0417,0.13511 0,0.17678 0.0884,0.0884 0.44194,-0.0884 0.53033,0 0.0417,0.0417 -0.0417,0.13511 0,0.17678 0.0833,0.0833 0.27022,-0.0833 0.35355,0 0.0417,0.0417 0,0.11785 0,0.17677 0.2357,0.0589 0.47141,0.11785 0.70711,0.17678 z"
           id="path4639"
           inkscape:connector-curvature="0" />
        <path
           style="fill:#008000;fill-rule:evenodd;stroke:#000000;stroke-width:1px;stroke-linecap:butt;stroke-linejoin:miter;stroke-opacity:1"
           d="m 500.65673,577.71678 c -0.2357,-0.11785 -0.48114,-0.21797 -0.70711,-0.35356 -0.0715,-0.0429 -0.11785,-0.11785 -0.17678,-0.17677 -0.17677,-0.17678 -0.35355,-0.35356 -0.53033,-0.53033 -0.17677,-0.17678 -0.35355,-0.35356 -0.53033,-0.53033 -0.0589,-0.0589 -0.13055,-0.10744 -0.17677,-0.17678 -0.0731,-0.10963 -0.10369,-0.24392 -0.17678,-0.35355 -0.17341,-0.26013 -0.53369,-0.44699 -0.70711,-0.70711 -0.0731,-0.10963 -0.10368,-0.24392 -0.17677,-0.35355 -0.0924,-0.13868 -0.30085,-0.19544 -0.35356,-0.35356 -0.0373,-0.1118 0.0373,-0.24175 0,-0.35355 -0.0527,-0.15811 -0.27901,-0.20448 -0.35355,-0.35355 -0.0263,-0.0527 0,-0.11785 0,-0.17678 -0.0589,-0.0589 -0.13951,-0.10224 -0.17678,-0.17678 -0.0264,-0.0527 0.0417,-0.13511 0,-0.17677 -0.0417,-0.0417 -0.13511,0.0417 -0.17677,0 -0.0417,-0.0417 0.0264,-0.12408 0,-0.17678 -0.0373,-0.0745 -0.13951,-0.10224 -0.17678,-0.17678 -0.0263,-0.0527 0.0417,-0.13511 0,-0.17677 -0.0417,-0.0417 -0.13511,0.0417 -0.17678,0 -0.0417,-0.0417 0.0264,-0.12408 0,-0.17678 -0.0373,-0.0745 -0.1395,-0.10224 -0.17677,-0.17678 -0.0264,-0.0527 0.0417,-0.13511 0,-0.17677 -0.0417,-0.0417 -0.13511,0.0417 -0.17678,0 -0.0417,-0.0417 0.0264,-0.12408 0,-0.17678 -0.36785,-0.7357 0.0122,0.18898 -0.35355,-0.17678 -0.0417,-0.0417 0.0263,-0.12407 0,-0.17677 -0.36785,-0.73571 0.0122,0.18898 -0.35356,-0.17678 -0.0417,-0.0417 0.0417,-0.13511 0,-0.17678 -0.0417,-0.0417 -0.12407,0.0264 -0.17677,0 -0.0745,-0.0373 -0.10224,-0.13951 -0.17678,-0.17677 -0.0527,-0.0264 -0.13511,0.0417 -0.17678,0 -0.0417,-0.0417 0.0417,-0.13511 0,-0.17678 -0.0417,-0.0417 -0.13511,0.0417 -0.17677,0 -0.0417,-0.0417 0.0417,-0.13511 0,-0.17678 -0.0833,-0.0833 -0.27022,0.0833 -0.35356,0 -0.0417,-0.0417 0.0417,-0.13511 0,-0.17677 -0.0417,-0.0417 -0.13511,0.0417 -0.17677,0 -0.0417,-0.0417 0.0417,-0.13511 0,-0.17678 -0.0417,-0.0417 -0.12408,0.0264 -0.17678,0 -0.0745,-0.0373 -0.10224,-0.13951 -0.17678,-0.17678 -0.0527,-0.0263 -0.13511,0.0417 -0.17677,0 -0.0417,-0.0417 0.0417,-0.13511 0,-0.17677 -0.11794,-0.11794 -0.23562,0.11793 -0.35356,0 -0.0417,-0.0417 0.0417,-0.13511 0,-0.17678 -0.0417,-0.0417 -0.11785,0 -0.17677,0 -0.0649,0 -0.7,-0.007 -0.70711,0 -0.0417,0.0417 0,0.11785 0,0.17678 0,0.0589 0,0.11785 0,0.17677 0,0.0649 -0.007,0.7 0,0.70711 0.0417,0.0417 0.13511,-0.0417 0.17678,0 0.0833,0.0833 -0.0833,0.27022 0,0.35355 0.0417,0.0417 0.13511,-0.0417 0.17677,0 0.0417,0.0417 -0.0417,0.13511 0,0.17678 0.36576,0.36576 -0.0143,-0.55893 0.35356,0.17678 0.0264,0.0527 -0.0417,0.13511 0,0.17677 0.0417,0.0417 0.13511,-0.0417 0.17677,0 0.0417,0.0417 -0.0417,0.13511 0,0.17678 0.0417,0.0417 0.13511,-0.0417 0.17678,0 0.0417,0.0417 -0.0417,0.13511 0,0.17678 0.0417,0.0417 0.13511,-0.0417 0.17678,0 0.0417,0.0417 -0.0417,0.13511 0,0.17677 0.0417,0.0417 0.13511,-0.0417 0.17677,0 0.0833,0.0833 -0.0833,0.27022 0,0.35356 0.0417,0.0417 0.13511,-0.0417 0.17678,0 0.0417,0.0417 -0.0417,0.13511 0,0.17677 0.0417,0.0417 0.13511,-0.0417 0.17678,0 0.0417,0.0417 -0.0417,0.13511 0,0.17678 0.0417,0.0417 0.13511,-0.0417 0.17677,0 0.0417,0.0417 -0.0417,0.13511 0,0.17678 0.0417,0.0417 0.13511,-0.0417 0.17678,0 0.0417,0.0417 -0.0417,0.13511 0,0.17677 0.0417,0.0417 0.13511,-0.0417 0.17678,0 0.0417,0.0417 -0.0417,0.13511 0,0.17678 0.36575,0.36576 -0.0143,-0.55893 0.35355,0.17678 0.0263,0.0527 -0.0417,0.13511 0,0.17677 0.36576,0.36576 -0.0143,-0.55892 0.35355,0.17678 0.0264,0.0527 -0.0417,0.13511 0,0.17678 0.0417,0.0417 0.13511,-0.0417 0.17678,0 0.0833,0.0833 -0.0833,0.27022 0,0.35355 0.0417,0.0417 0.13511,-0.0417 0.17678,0 0.0417,0.0417 -0.0417,0.13511 0,0.17678 0.0417,0.0417 0.13511,-0.0417 0.17677,0 0.0417,0.0417 -0.0417,0.13511 0,0.17677 0.0417,0.0417 0.13511,-0.0417 0.17678,0 0.0417,0.0417 -0.0417,0.13511 0,0.17678 0.36576,0.36576 -0.0143,-0.55893 0.35355,0.17678 0.0264,0.0527 -0.0417,0.13511 0,0.17677 0.0833,0.0833 0.27022,-0.0833 0.35356,0 0.0417,0.0417 -0.0417,0.13511 0,0.17678 0.0417,0.0417 0.13511,-0.0417 0.17677,0 0.0417,0.0417 -0.0417,0.13511 0,0.17678 0.0425,0.0425 0.66457,-0.0425 0.70711,0 0.0417,0.0417 -0.0417,0.13511 0,0.17677 0.0884,0.0884 0.44194,-0.0884 0.53033,0 0.0417,0.0417 -0.0417,0.13511 0,0.17678 0.0833,0.0833 0.27022,-0.0833 0.35355,0 0.0417,0.0417 -0.0417,0.13511 0,0.17678 0.0417,0.0417 0.13511,-0.0417 0.17678,0 0.0417,0.0417 -0.0417,0.13511 0,0.17677 0.0417,0.0417 0.13511,-0.0417 0.17678,0 0.0417,0.0417 -0.0417,0.13511 0,0.17678 0.0417,0.0417 0.13511,-0.0417 0.17677,0 0.0417,0.0417 -0.0417,0.13511 0,0.17678 0.0833,0.0833 0.27022,-0.0833 0.35356,0 0.0417,0.0417 -0.0417,0.13511 0,0.17677 0.0884,0.0884 0.44194,-0.0884 0.53033,0 0.0417,0.0417 -0.0417,0.13511 0,0.17678 0.0833,0.0833 0.27022,-0.0833 0.35355,0 0.0417,0.0417 0,0.11785 0,0.17678 0.2357,0.17677 0.47141,0.35355 0.70711,0.53033 z"
           id="path4641"
           inkscape:connector-curvature="0" />
      </g>
      <path
         sodipodi:nodetypes="ccccccc"
         inkscape:connector-curvature="0"
         d="m 511.41498,601.93518 3.35842,-16.617 0,-5.48008 -23.6874,0 0,5.48008 3.35842,16.617 z"
         style="fill:#999999;fill-rule:evenodd;stroke:#000000;stroke-width:1px;stroke-linecap:butt;stroke-linejoin:miter;stroke-opacity:1"
         id="path4612" />
    </g>
    <rect
       style="fill:url(#linearGradient4705);fill-opacity:1;stroke:#000000;stroke-width:0.5;stroke-miterlimit:4;stroke-dasharray:none"
       id="rect4697"
       width="156.59109"
       height="29.497375"
       x="121.51432"
       y="403.27798" />
    <g
       transform="matrix(0.74056303,0,0,0.74056303,-117.46683,-32.37521)"
       id="g4750">
      <path
         inkscape:connector-curvature="0"
         id="path4752"
         style="fill:#858585;fill-opacity:1;stroke:#000000;stroke-width:1.35032392;stroke-miterlimit:4;stroke-dasharray:none"
         d="m 358.13086,727.1181 62.2955,0 0,-130.51178 -62.2955,0 z m -8,-138.84515 78.2955,0 0,147.17856 -78.2955,0 z" />
      <rect
         style="fill:#858585;fill-opacity:1;stroke:#000000;stroke-width:0.67516196;stroke-miterlimit:4;stroke-dasharray:none"
         id="rect4754"
         width="62.295502"
         height="8.333374"
         x="358.13086"
         y="668.49805" />
      <rect
         style="fill:#858585;fill-opacity:1;stroke:#000000;stroke-width:0.67516196;stroke-miterlimit:4;stroke-dasharray:none"
         id="rect4756"
         width="5.75"
         height="44.25"
         x="409.75"
         y="650.53973" />
    </g>
    <g
       transform="translate(-333.11656,-119.08676)"
       id="g4803">
      <g
         id="g4793">
        <g
           id="g4829">
          <rect
             y="522.36475"
             x="593.36163"
             height="108.995"
             width="6.3837008"
             id="rect4785"
             style="fill:#999999;fill-opacity:1;stroke:#000000;stroke-width:1;stroke-miterlimit:4;stroke-dasharray:none" />
          <rect
             style="fill:#999999;fill-opacity:1;stroke:#000000;stroke-width:1;stroke-miterlimit:4;stroke-dasharray:none"
             id="rect4827"
             width="2.4524536"
             height="108.995"
             x="590.90918"
             y="522.36475" />
        </g>
        <use
           x="0"
           y="0"
           xlink:href="#g4829"
           id="use4833"
           transform="matrix(-1,0,0,1,1065.8529,3.90625e-6)"
           width="100%"
           height="100%" />
      </g>
      <path
         sodipodi:nodetypes="ccccc"
         inkscape:connector-curvature="0"
         d="m 590.9092,528.36475 20.31272,-19.09183 0,-6 -20.31272,19.09183 z"
         style="fill:#999999;fill-opacity:1;fill-rule:evenodd;stroke:#000000;stroke-width:1px;stroke-linecap:butt;stroke-linejoin:miter;stroke-opacity:1"
         id="path4776" />
      <path
         id="path4779"
         style="fill:#999999;fill-opacity:1;fill-rule:evenodd;stroke:#000000;stroke-width:1px;stroke-linecap:butt;stroke-linejoin:miter;stroke-opacity:1"
         d="m 590.9092,625.35975 20.31272,19.09183 0,6 -20.31272,-19.09183 z"
         inkscape:connector-curvature="0"
         sodipodi:nodetypes="ccccc" />
      <g
         transform="matrix(-1,0,0,1,1065.8529,3.90625e-6)"
         id="g4797" />
      <path
         id="path4781"
         style="fill:#999999;fill-opacity:1;fill-rule:evenodd;stroke:#000000;stroke-width:1px;stroke-linecap:butt;stroke-linejoin:miter;stroke-opacity:1"
         d="m 474.9437,528.36475 -20.31272,-19.09183 0,-6 20.31272,19.09183 z"
         inkscape:connector-curvature="0"
         sodipodi:nodetypes="ccccc" />
      <path
         sodipodi:nodetypes="ccccc"
         inkscape:connector-curvature="0"
         d="m 474.9437,625.35975 -20.31272,19.09183 0,6 20.31272,-19.09183 z"
         style="fill:#999999;fill-opacity:1;fill-rule:evenodd;stroke:#000000;stroke-width:1px;stroke-linecap:butt;stroke-linejoin:miter;stroke-opacity:1"
         id="path4783" />
    </g>
    <g
       id="g4731"
       transform="translate(-228.61656,-204.0868)">
      <path
         d="m 358.13086,727.1181 62.2955,0 0,-130.51178 -62.2955,0 z m -8,-138.84515 78.2955,0 0,147.17856 -78.2955,0 z"
         style="fill:#d4d4d4;fill-opacity:1;stroke:#000000;stroke-width:1;stroke-miterlimit:4;stroke-dasharray:none"
         id="rect4717"
         inkscape:connector-curvature="0" />
      <rect
         y="669.69556"
         x="358.13086"
         height="8.333374"
         width="62.295502"
         id="rect4721"
         style="fill:#d4d4d4;fill-opacity:1;stroke:#000000;stroke-width:0.5;stroke-miterlimit:4;stroke-dasharray:none" />
      <rect
         y="651.73724"
         x="409.75"
         height="44.25"
         width="5.75"
         id="rect4729"
         style="fill:#d4d4d4;fill-opacity:1;stroke:#000000;stroke-width:0.5;stroke-miterlimit:4;stroke-dasharray:none" />
    </g>
    <use
       x="0"
       y="0"
       xlink:href="#g4750"
       id="use4758"
       transform="matrix(-1,0,0,1,399.61992,-1.1571429e-5)"
       width="100%"
       height="100%" />
    <use
       x="0"
       y="0"
       xlink:href="#g4731"
       id="use4760"
       transform="matrix(-1,0,0,1,399.61982,-1.1571429e-5)"
       width="100%"
       height="100%" />
  </g>
</svg>
