<?xml version="1.0" encoding="UTF-8" standalone="no"?>
<!-- Created with Inkscape (http://www.inkscape.org/) -->
<svg
   xmlns:xml="http://www.w3.org/XML/1998/namespace"
   xmlns:svg="http://www.w3.org/2000/svg"
   xmlns="http://www.w3.org/2000/svg"
   id="svg2"
   height="250.00000"
   width="687.50000"
   y="0.0000000"
   x="0.0000000"
   version="1.0">
  <defs
     id="defs3" />
  <g
     id="layer1">
    <path
       id="path3589"
       style="fill:#ffffff;fill-opacity:1.0000000;fill-rule:nonzero;stroke:#000000;stroke-width:1.0000000;stroke-miterlimit:4.0000000;stroke-opacity:1.0000000"
       transform="translate(-85.00000,-58.99500)"
       d="M 753.00000 200.86218 A 32.000000 32.500000 0 1 1  689.00000,200.86218 A 32.000000 32.500000 0 1 1  753.00000 200.86218 z" />
    <path
       id="path1291"
       style="fill:#ffffff;fill-opacity:1.0000000;fill-rule:nonzero;stroke:#000000;stroke-width:1.0000000;stroke-miterlimit:4.0000000;stroke-opacity:1.0000000"
       transform="translate(-71.00000,-45.99500)"
       d="M 247.00000 184.86218 A 64.000000 59.500000 0 1 1  119.00000,184.86218 A 64.000000 59.500000 0 1 1  247.00000 184.86218 z" />
    <path
       id="path2052"
       style="fill:#ffffff;fill-opacity:1.0000000;fill-rule:nonzero;stroke:#000000;stroke-width:1.0000000;stroke-miterlimit:4.0000000;stroke-opacity:1.0000000"
       transform="translate(-70.00000,-52.99500)"
       d="M 162.00000 161.36218 A 4.0000000 4.0000000 0 1 1  154.00000,161.36218 A 4.0000000 4.0000000 0 1 1  162.00000 161.36218 z" />
    <path
       id="path2054"
       style="fill:#ffffff;fill-opacity:1.0000000;fill-rule:nonzero;stroke:#000000;stroke-width:1.0000000;stroke-miterlimit:4.0000000;stroke-opacity:1.0000000"
       transform="translate(-23.00000,-52.99500)"
       d="M 162.00000 161.36218 A 4.0000000 4.0000000 0 1 1  154.00000,161.36218 A 4.0000000 4.0000000 0 1 1  162.00000 161.36218 z" />
    <path
       id="path2058"
       style="fill:#ffffff;fill-opacity:1.0000000;fill-rule:nonzero;stroke:#000000;stroke-width:1.0000000;stroke-miterlimit:4.0000000;stroke-opacity:1.0000000"
       transform="translate(-86.00000,-24.99500)"
       d="M 162.00000 161.36218 A 4.0000000 4.0000000 0 1 1  154.00000,161.36218 A 4.0000000 4.0000000 0 1 1  162.00000 161.36218 z" />
    <path
       id="path2060"
       style="fill:#ffffff;fill-opacity:1.0000000;fill-rule:nonzero;stroke:#000000;stroke-width:1.0000000;stroke-miterlimit:4.0000000;stroke-opacity:1.0000000"
       transform="translate(-8.000000,-23.99500)"
       d="M 162.00000 161.36218 A 4.0000000 4.0000000 0 1 1  154.00000,161.36218 A 4.0000000 4.0000000 0 1 1  162.00000 161.36218 z" />
    <rect
       id="rect2062"
       style="fill:#ffffff;fill-opacity:1.0000000;fill-rule:nonzero;stroke:#000000;stroke-width:1.0000000;stroke-miterlimit:4.0000000;stroke-opacity:1.0000000"
       y="166.36719"
       x="97.000000"
       height="13.000000"
       width="30.000000" />
    <path
       id="path3580"
       style="fill:none;fill-opacity:0.75000000;fill-rule:evenodd;stroke:#000000;stroke-width:1.0000000px;stroke-linecap:butt;stroke-linejoin:miter;stroke-opacity:1.0000000"
       d="M 85.000000,107.36718 C 17.000000,107.36718 17.000000,107.36718 17.000000,107.36718 L 17.000000,19.367188 L 260.00000,19.367188 L 260.00000,52.367180" />
    <path
       id="path3583"
       style="fill:none;fill-opacity:0.75000000;fill-rule:evenodd;stroke:#000000;stroke-width:0.94398057px;stroke-linecap:butt;stroke-linejoin:miter;stroke-opacity:1.0000000"
       d="M 138.99808,109.31455 L 567.24992,109.31455 L 567.24992,142.41981 L 628.00192,142.41981" />
    <path
       id="path3585"
       style="fill:none;fill-opacity:0.75000000;fill-rule:evenodd;stroke:#000000;stroke-width:1.0000000px;stroke-linecap:butt;stroke-linejoin:miter;stroke-opacity:1.0000000"
       d="M 260.00000,105.36718 L 260.00000,70.367180" />
    <path
       id="path3587"
       style="fill:#ffffff;fill-opacity:1.0000000;fill-rule:nonzero;stroke:#000000;stroke-width:1.0000000;stroke-miterlimit:4.0000000;stroke-opacity:1.0000000"
       transform="translate(-71.00000,-45.99500)"
       d="M 712.00000 188.36218 A 5.5000000 6.0000000 0 1 1  701.00000,188.36218 A 5.5000000 6.0000000 0 1 1  712.00000 188.36218 z" />
    <rect
       id="rect4351"
       style="fill:#000000;fill-opacity:1.0000000;fill-rule:nonzero;stroke:#000000;stroke-width:1.0000000;stroke-miterlimit:4.0000000;stroke-opacity:1.0000000"
       y="64.867188"
       x="242.50000"
       height="7.0000000"
       width="35.000000" />
    <rect
       id="rect6627"
       style="fill:#000000;fill-opacity:1.0000000;fill-rule:nonzero;stroke:#000000;stroke-width:1.0000000;stroke-miterlimit:4.0000000;stroke-opacity:1.0000000"
       y="52.867188"
       x="242.50000"
       height="7.0000000"
       width="35.000000" />
    <text
       xml:space="preserve"
       id="text6629"
       style="font-size:16.000000;font-style:normal;font-variant:normal;font-weight:normal;font-stretch:normal;fill:#000000;fill-opacity:1.0000000;stroke:none;stroke-width:1.0000000px;stroke-linecap:butt;stroke-linejoin:miter;stroke-opacity:1.0000000;font-family:Verdana;text-anchor:start;writing-mode:lr-tb"
       y="68.234383"
       x="292.10156"><tspan
         id="tspan6631"
         y="68.234383"
         x="292.10156">≈470pF</tspan></text>
    <path
       id="path8153"
       style="fill:#000000;fill-opacity:1.0000000;fill-rule:nonzero;stroke:#000000;stroke-width:1.0000000;stroke-miterlimit:4.0000000;stroke-opacity:1.0000000"
       transform="translate(-70.00000,-41.99500)"
       d="M 333.00000 150.86218 A 3.5000000 3.5000000 0 1 1  326.00000,150.86218 A 3.5000000 3.5000000 0 1 1  333.00000 150.86218 z" />
    <text
       xml:space="preserve"
       id="text8155"
       style="font-size:16.000000;font-style:normal;font-variant:normal;font-weight:normal;font-stretch:normal;fill:#000000;fill-opacity:1.0000000;stroke:none;stroke-width:1.0000000px;stroke-linecap:butt;stroke-linejoin:miter;stroke-opacity:1.0000000;font-family:Verdana;text-anchor:start;writing-mode:lr-tb"
       y="97.210938"
       x="42.101562"><tspan
         id="tspan8157"
         y="97.210938"
         x="42.101562">C</tspan></text>
    <text
       xml:space="preserve"
       id="text8159"
       style="font-size:16.000000;font-style:normal;font-variant:normal;font-weight:normal;font-stretch:normal;fill:#000000;fill-opacity:1.0000000;stroke:none;stroke-width:1.0000000px;stroke-linecap:butt;stroke-linejoin:miter;stroke-opacity:1.0000000;font-family:Verdana;text-anchor:start;writing-mode:lr-tb"
       y="96"
       x="169.20312"><tspan
         id="tspan8161"
         y="96"
         x="169.20312">Y</tspan></text>
    <path
       id="path8163"
       style="fill:none;fill-opacity:0.75000000;fill-rule:evenodd;stroke:#000000;stroke-width:1.1016966px;stroke-linecap:butt;stroke-linejoin:miter;stroke-opacity:1.0000000"
       d="M 635.99841,173.86718 L 635.99841,233.26048 L 15.001593,233.26048 L 15.001593,136.47388 L 67.166110,136.47388" />
    <path
       id="path8165"
       style="fill:none;fill-opacity:0.75000000;fill-rule:evenodd;stroke:#000000;stroke-width:1.1165811px;stroke-linecap:butt;stroke-linejoin:miter;stroke-opacity:1.0000000"
       d="M 155.00000,137.49056 L 220.00000,137.49056 L 220.00000,232.24380" />
    <path
       id="path8193"
       style="fill:#000000;fill-opacity:1.0000000;fill-rule:nonzero;stroke:#000000;stroke-width:1.0000000;stroke-miterlimit:4.0000000;stroke-opacity:1.0000000"
       transform="translate(-109.5000,81.50500)"
       d="M 333.00000 150.86218 A 3.5000000 3.5000000 0 1 1  326.00000,150.86218 A 3.5000000 3.5000000 0 1 1  333.00000 150.86218 z" />
    <text
       xml:space="preserve"
       id="text8195"
       style="font-size:16.000000;font-style:normal;font-variant:normal;font-weight:normal;font-stretch:normal;fill:#000000;fill-opacity:1.0000000;stroke:none;stroke-width:1.0000000px;stroke-linecap:butt;stroke-linejoin:miter;stroke-opacity:1.0000000;font-family:Verdana;text-anchor:start;writing-mode:lr-tb"
       y="86.210938"
       x="593.09375"><tspan
         id="tspan8197"
         y="86.210938"
         x="593.09375">Composite</tspan></text>
  </g>
</svg>
