<?xml version="1.0" encoding="UTF-8" standalone="no"?>
<!-- Created with Inkscape (http://www.inkscape.org/) -->

<svg
   xmlns:dc="http://purl.org/dc/elements/1.1/"
   xmlns:cc="http://creativecommons.org/ns#"
   xmlns:rdf="http://www.w3.org/1999/02/22-rdf-syntax-ns#"
   xmlns:svg="http://www.w3.org/2000/svg"
   xmlns="http://www.w3.org/2000/svg"
   xmlns:xlink="http://www.w3.org/1999/xlink"
   xmlns:sodipodi="http://sodipodi.sourceforge.net/DTD/sodipodi-0.dtd"
   xmlns:inkscape="http://www.inkscape.org/namespaces/inkscape"
   width="550"
   height="400"
   viewBox="0 0 550.00001 400"
   id="svg6834"
   version="1.1"
   inkscape:version="0.91 r13725"
   sodipodi:docname="2019-12-01-bags.svg">
  <defs
     id="defs6836" />
  <sodipodi:namedview
     id="base"
     pagecolor="#ffffff"
     bordercolor="#666666"
     borderopacity="1.0"
     inkscape:pageopacity="0.0"
     inkscape:pageshadow="2"
     inkscape:zoom="1"
     inkscape:cx="316.9775"
     inkscape:cy="200.29442"
     inkscape:document-units="px"
     inkscape:current-layer="svg6834"
     showgrid="false"
     units="px"
     inkscape:window-width="1364"
     inkscape:window-height="700"
     inkscape:window-x="0"
     inkscape:window-y="0"
     inkscape:window-maximized="1" />
  <metadata
     id="metadata6839">
    <rdf:RDF>
      <cc:Work
         rdf:about="">
        <dc:format>image/svg+xml</dc:format>
        <dc:type
           rdf:resource="http://purl.org/dc/dcmitype/StillImage" />
        <dc:title></dc:title>
      </cc:Work>
    </rdf:RDF>
  </metadata>
  <g
     inkscape:label="Layer 1"
     inkscape:groupmode="layer"
     id="layer1">
    <g
       id="g5308"
       transform="translate(-618.65176,-503.32897)">
      <path
         sodipodi:nodetypes="ssscsss"
         inkscape:connector-curvature="0"
         id="path5288"
         d="m 629,831.3622 c 1.0158,-16.73972 24.5,-17 43.5,-17 19,0 120.81282,-1.14645 131.31282,-0.64645 10.5,0.5 19.41941,13.12653 26.18718,13.64645 -6.14645,1.04505 -11.6066,19.38388 -24.72272,19.5 -14.03512,0.12425 -128.27728,1 -145.27728,1 -17,0 -31.59824,-6.64146 -31,-16.5 z"
         style="fill:none;fill-rule:evenodd;stroke:#000000;stroke-width:1px;stroke-linecap:butt;stroke-linejoin:miter;stroke-opacity:1" />
      <path
         style="fill:none;fill-rule:evenodd;stroke:#000000;stroke-width:1px;stroke-linecap:butt;stroke-linejoin:miter;stroke-opacity:1"
         d="m 653,697.3622 c 1.0158,-16.73972 24.5,-17 43.5,-17 19,0 120.81282,-1.14645 131.31282,-0.64645 10.5,0.5 19.41941,13.12653 26.18718,13.64645 -6.14645,1.04505 -11.6066,19.38388 -24.72272,19.5 -14.03512,0.12425 -128.27728,1 -145.27728,1 -17,0 -31.59824,-6.64146 -31,-16.5 z"
         id="path5290"
         inkscape:connector-curvature="0"
         sodipodi:nodetypes="ssscsss" />
      <path
         inkscape:connector-curvature="0"
         id="path5296"
         d="m 653,697.3622 -24,134"
         style="fill:none;fill-rule:evenodd;stroke:#000000;stroke-width:1px;stroke-linecap:butt;stroke-linejoin:miter;stroke-opacity:1" />
      <path
         inkscape:connector-curvature="0"
         id="path5298"
         d="m 854,693.3622 -24,134"
         style="fill:none;fill-rule:evenodd;stroke:#000000;stroke-width:1px;stroke-linecap:butt;stroke-linejoin:miter;stroke-opacity:1" />
      <path
         sodipodi:nodetypes="ccccc"
         inkscape:connector-curvature="0"
         id="path5304"
         d="m 861.98524,693.23775 -24.70584,133.83252 -4.0533,0.0429 24.5165,-133.66831 z"
         style="fill:#9b9bff;fill-opacity:1;fill-rule:evenodd;stroke:none;stroke-width:1px;stroke-linecap:butt;stroke-linejoin:miter;stroke-opacity:1" />
      <path
         sodipodi:nodetypes="cccc"
         inkscape:connector-curvature="0"
         id="path5306"
         d="M 854,693.3622 865.87433,693.23775 841.16849,827.07027 830,827.3622"
         style="fill:none;fill-rule:evenodd;stroke:#000000;stroke-width:1px;stroke-linecap:butt;stroke-linejoin:miter;stroke-opacity:1" />
    </g>
    <g
       transform="translate(-352.65176,-503.32897)"
       id="g5316">
      <path
         style="fill:none;fill-rule:evenodd;stroke:#000000;stroke-width:1px;stroke-linecap:butt;stroke-linejoin:miter;stroke-opacity:1"
         d="m 629,831.3622 c 1.0158,-16.73972 24.5,-17 43.5,-17 19,0 120.81282,-1.14645 131.31282,-0.64645 10.5,0.5 19.41941,13.12653 26.18718,13.64645 -6.14645,1.04505 -11.6066,19.38388 -24.72272,19.5 -14.03512,0.12425 -128.27728,1 -145.27728,1 -17,0 -31.59824,-6.64146 -31,-16.5 z"
         id="path5318"
         inkscape:connector-curvature="0"
         sodipodi:nodetypes="ssscsss" />
      <path
         sodipodi:nodetypes="ssscsss"
         inkscape:connector-curvature="0"
         id="path5320"
         d="m 653,697.3622 c 1.0158,-16.73972 24.5,-17 43.5,-17 19,0 120.81282,-1.14645 131.31282,-0.64645 10.5,0.5 19.41941,13.12653 26.18718,13.64645 -6.14645,1.04505 -11.6066,19.38388 -24.72272,19.5 -14.03512,0.12425 -128.27728,1 -145.27728,1 -17,0 -31.59824,-6.64146 -31,-16.5 z"
         style="fill:none;fill-rule:evenodd;stroke:#000000;stroke-width:1px;stroke-linecap:butt;stroke-linejoin:miter;stroke-opacity:1" />
      <path
         style="fill:none;fill-rule:evenodd;stroke:#000000;stroke-width:1px;stroke-linecap:butt;stroke-linejoin:miter;stroke-opacity:1"
         d="m 653,697.3622 -24,134"
         id="path5322"
         inkscape:connector-curvature="0" />
      <path
         style="fill:none;fill-rule:evenodd;stroke:#000000;stroke-width:1px;stroke-linecap:butt;stroke-linejoin:miter;stroke-opacity:1"
         d="m 854,693.3622 -24,134"
         id="path5324"
         inkscape:connector-curvature="0" />
      <path
         style="fill:#9b9bff;fill-opacity:1;fill-rule:evenodd;stroke:none;stroke-width:1px;stroke-linecap:butt;stroke-linejoin:miter;stroke-opacity:1"
         d="m 861.98524,693.23775 -24.70584,133.83252 -4.0533,0.0429 24.5165,-133.66831 z"
         id="path5326"
         inkscape:connector-curvature="0"
         sodipodi:nodetypes="ccccc" />
      <path
         style="fill:none;fill-rule:evenodd;stroke:#000000;stroke-width:1px;stroke-linecap:butt;stroke-linejoin:miter;stroke-opacity:1"
         d="M 854,693.3622 865.87433,693.23775 841.16849,827.07027 830,827.3622"
         id="path5328"
         inkscape:connector-curvature="0"
         sodipodi:nodetypes="cccc" />
    </g>
    <use
       x="0"
       y="0"
       xlink:href="#g5316"
       id="use5378"
       transform="translate(2.7889792e-8,-33.000001)"
       width="100%"
       height="100%" />
    <use
       height="100%"
       width="100%"
       transform="translate(2.7889792e-8,-66.000001)"
       id="use5380"
       xlink:href="#g5316"
       y="0"
       x="0" />
    <use
       x="0"
       y="0"
       xlink:href="#g5316"
       id="use5382"
       transform="translate(2.7889792e-8,-100)"
       width="100%"
       height="100%" />
    <use
       height="100%"
       width="100%"
       transform="translate(2.7889792e-8,-134)"
       id="use5384"
       xlink:href="#g5316"
       y="0"
       x="0" />
    <text
       xml:space="preserve"
       style="font-style:normal;font-weight:normal;font-size:15px;line-height:125%;font-family:sans-serif;letter-spacing:0px;word-spacing:0px;fill:#000000;fill-opacity:1;stroke:none;stroke-width:1px;stroke-linecap:butt;stroke-linejoin:miter;stroke-opacity:1"
       x="531.34821"
       y="54.033249"
       id="text5386"
       sodipodi:linespacing="125%"><tspan
         sodipodi:role="line"
         id="tspan5388"
         x="531.34821"
         y="54.033249">5</tspan><tspan
         sodipodi:role="line"
         x="531.34821"
         y="72.783241"
         id="tspan5390" /><tspan
         sodipodi:role="line"
         x="531.34821"
         y="91.533241"
         id="tspan5392">4</tspan><tspan
         sodipodi:role="line"
         x="531.34821"
         y="110.28324"
         id="tspan5394" /><tspan
         sodipodi:role="line"
         x="531.34821"
         y="129.03325"
         id="tspan5396">3</tspan><tspan
         sodipodi:role="line"
         x="531.34821"
         y="147.78325"
         id="tspan5398" /><tspan
         sodipodi:role="line"
         x="531.34821"
         y="166.53325"
         id="tspan5400">2</tspan><tspan
         sodipodi:role="line"
         x="531.34821"
         y="185.28325"
         id="tspan5402" /><tspan
         sodipodi:role="line"
         x="531.34821"
         y="204.03325"
         id="tspan5404">1</tspan></text>
  </g>
</svg>
